<?xml version="1.0" encoding="utf-8" standalone="no"?>
<!DOCTYPE svg PUBLIC "-//W3C//DTD SVG 1.1//EN"
  "http://www.w3.org/Graphics/SVG/1.1/DTD/svg11.dtd">
<svg height="345.6pt" version="1.1" viewBox="0 0 460.8 345.6" width="460.8pt" xmlns="http://www.w3.org/2000/svg" xmlns:xlink="http://www.w3.org/1999/xlink">
 <metadata>
  <rdf:RDF xmlns:cc="http://creativecommons.org/ns#" xmlns:dc="http://purl.org/dc/elements/1.1/" xmlns:rdf="http://www.w3.org/1999/02/22-rdf-syntax-ns#">
   <cc:Work>
    <dc:type rdf:resource="http://purl.org/dc/dcmitype/StillImage"/>
    <dc:date>2021-10-04T16:34:39.507234</dc:date>
    <dc:format>image/svg+xml</dc:format>
    <dc:creator>
     <cc:Agent>
      <dc:title>Matplotlib v3.4.3, https://matplotlib.org/</dc:title>
     </cc:Agent>
    </dc:creator>
   </cc:Work>
  </rdf:RDF>
 </metadata>
 <defs>
  <style type="text/css">*{stroke-linecap:butt;stroke-linejoin:round;}</style>
 </defs>
 <g id="figure_1">
  <g id="patch_1">
   <path d="M 0 345.6 
L 460.8 345.6 
L 460.8 0 
L 0 0 
z
" style="fill:#ffffff;"/>
  </g>
  <g id="axes_1">
   <g id="patch_2">
    <path d="M 57.6 307.584 
L 414.72 307.584 
L 414.72 41.472 
L 57.6 41.472 
z
" style="fill:#ffffff;"/>
   </g>
   <g id="PathCollection_1">
    <path clip-path="url(#p36d21c4437)" d="M 97.998901 225.954497 
C 100.295627 225.954497 102.498594 225.041998 104.122625 223.417967 
C 105.746656 221.793936 106.659155 219.590969 106.659155 217.294243 
C 106.659155 214.997516 105.746656 212.794549 104.122625 211.170518 
C 102.498594 209.546488 100.295627 208.633989 97.998901 208.633989 
C 95.702174 208.633989 93.499207 209.546488 91.875176 211.170518 
C 90.251146 212.794549 89.338647 214.997516 89.338647 217.294243 
C 89.338647 219.590969 90.251146 221.793936 91.875176 223.417967 
C 93.499207 225.041998 95.702174 225.954497 97.998901 225.954497 
z
" style="fill:#1f77b4;stroke:#ffffff;stroke-width:1.385641;"/>
    <path clip-path="url(#p36d21c4437)" d="M 100.484254 252.601179 
C 102.78098 252.601179 104.983947 251.68868 106.607978 250.064649 
C 108.232009 248.440618 109.144508 246.237651 109.144508 243.940925 
C 109.144508 241.644198 108.232009 239.441231 106.607978 237.8172 
C 104.983947 236.19317 102.78098 235.280671 100.484254 235.280671 
C 98.187527 235.280671 95.98456 236.19317 94.360529 237.8172 
C 92.736499 239.441231 91.824 241.644198 91.824 243.940925 
C 91.824 246.237651 92.736499 248.440618 94.360529 250.064649 
C 95.98456 251.68868 98.187527 252.601179 100.484254 252.601179 
z
" style="fill:#1f77b4;stroke:#ffffff;stroke-width:1.385641;"/>
    <path clip-path="url(#p36d21c4437)" d="M 73.832727 258.079174 
C 76.129453 258.079174 78.332421 257.166675 79.956452 255.542644 
C 81.580482 253.918613 82.492981 251.715646 82.492981 249.41892 
C 82.492981 247.122194 81.580482 244.919226 79.956452 243.295195 
C 78.332421 241.671165 76.129453 240.758666 73.832727 240.758666 
C 71.536001 240.758666 69.333034 241.671165 67.709003 243.295195 
C 66.084972 244.919226 65.172473 247.122194 65.172473 249.41892 
C 65.172473 251.715646 66.084972 253.918613 67.709003 255.542644 
C 69.333034 257.166675 71.536001 258.079174 73.832727 258.079174 
z
" style="fill:#1f77b4;stroke:#ffffff;stroke-width:1.385641;"/>
    <path clip-path="url(#p36d21c4437)" d="M 78.80622 257.078344 
C 81.102946 257.078344 83.305914 256.165845 84.929944 254.541814 
C 86.553975 252.917783 87.466474 250.714816 87.466474 248.41809 
C 87.466474 246.121363 86.553975 243.918396 84.929944 242.294365 
C 83.305914 240.670334 81.102946 239.757835 78.80622 239.757835 
C 76.509494 239.757835 74.306526 240.670334 72.682496 242.294365 
C 71.058465 243.918396 70.145966 246.121363 70.145966 248.41809 
C 70.145966 250.714816 71.058465 252.917783 72.682496 254.541814 
C 74.306526 256.165845 76.509494 257.078344 78.80622 257.078344 
z
" style="fill:#1f77b4;stroke:#ffffff;stroke-width:1.385641;"/>
    <path clip-path="url(#p36d21c4437)" d="M 302.78881 302.556144 
L 307.118937 298.226017 
L 311.449064 302.556144 
L 315.779191 298.226017 
L 311.449064 293.89589 
L 315.779191 289.565763 
L 311.449064 285.235636 
L 307.118937 289.565763 
L 302.78881 285.235636 
L 298.458683 289.565763 
L 302.78881 293.89589 
L 298.458683 298.226017 
z
" style="fill:#ff7f0e;stroke:#ffffff;stroke-width:1.385641;"/>
    <path clip-path="url(#p36d21c4437)" d="M 73.872041 267.538146 
L 73.872041 279.785595 
L 86.119489 279.785595 
L 86.119489 267.538146 
z
" style="fill:#2ca02c;stroke:#ffffff;stroke-width:1.385641;"/>
    <path clip-path="url(#p36d21c4437)" d="M 87.099615 258.810179 
L 87.099615 271.057628 
L 99.347064 271.057628 
L 99.347064 258.810179 
z
" style="fill:#2ca02c;stroke:#ffffff;stroke-width:1.385641;"/>
    <path clip-path="url(#p36d21c4437)" d="M 110.11952 261.703449 
L 110.11952 273.950898 
L 122.366969 273.950898 
L 122.366969 261.703449 
z
" style="fill:#2ca02c;stroke:#ffffff;stroke-width:1.385641;"/>
    <path clip-path="url(#p36d21c4437)" d="M 111.867259 257.602269 
L 111.867259 269.849718 
L 124.114707 269.849718 
L 124.114707 257.602269 
z
" style="fill:#2ca02c;stroke:#ffffff;stroke-width:1.385641;"/>
    <path clip-path="url(#p36d21c4437)" d="M 208.517834 62.228254 
L 214.291337 62.228254 
L 214.291337 56.454751 
L 220.06484 56.454751 
L 220.06484 50.681249 
L 214.291337 50.681249 
L 214.291337 44.907746 
L 208.517834 44.907746 
L 208.517834 50.681249 
L 202.744332 50.681249 
L 202.744332 56.454751 
L 208.517834 56.454751 
z
" style="fill:#d62728;stroke:#ffffff;stroke-width:1.385641;"/>
    <path clip-path="url(#p36d21c4437)" d="M 171.352858 100.661119 
L 177.12636 100.661119 
L 177.12636 94.887617 
L 182.899863 94.887617 
L 182.899863 89.114114 
L 177.12636 89.114114 
L 177.12636 83.340611 
L 171.352858 83.340611 
L 171.352858 89.114114 
L 165.579355 89.114114 
L 165.579355 94.887617 
L 171.352858 94.887617 
z
" style="fill:#d62728;stroke:#ffffff;stroke-width:1.385641;"/>
    <path clip-path="url(#p36d21c4437)" d="M 185.858271 90.284771 
L 191.631774 90.284771 
L 191.631774 84.511268 
L 197.405277 84.511268 
L 197.405277 78.737766 
L 191.631774 78.737766 
L 191.631774 72.964263 
L 185.858271 72.964263 
L 185.858271 78.737766 
L 180.084769 78.737766 
L 180.084769 84.511268 
L 185.858271 84.511268 
z
" style="fill:#d62728;stroke:#ffffff;stroke-width:1.385641;"/>
    <path clip-path="url(#p36d21c4437)" d="M 146.078784 79.085554 
L 151.852286 79.085554 
L 151.852286 73.312052 
L 157.625789 73.312052 
L 157.625789 67.538549 
L 151.852286 67.538549 
L 151.852286 61.765046 
L 146.078784 61.765046 
L 146.078784 67.538549 
L 140.305281 67.538549 
L 140.305281 73.312052 
L 146.078784 73.312052 
z
" style="fill:#d62728;stroke:#ffffff;stroke-width:1.385641;"/>
    <path clip-path="url(#p36d21c4437)" d="M 376.600824 187.834887 
L 380.930951 183.50476 
L 385.261078 187.834887 
L 389.591205 183.50476 
L 385.261078 179.174633 
L 389.591205 174.844506 
L 385.261078 170.514379 
L 380.930951 174.844506 
L 376.600824 170.514379 
L 372.270697 174.844506 
L 376.600824 179.174633 
L 372.270697 183.50476 
z
" style="fill:#ff7f0e;stroke:#ffffff;stroke-width:1.385641;"/>
    <path clip-path="url(#p36d21c4437)" d="M 188.729438 108.520445 
L 180.069184 117.180699 
L 188.729438 125.840953 
L 197.389692 117.180699 
z
" style="fill:#9467bd;stroke:#ffffff;stroke-width:1.385641;"/>
    <path clip-path="url(#p36d21c4437)" d="M 165.613098 90.166105 
L 156.952844 98.82636 
L 165.613098 107.486614 
L 174.273352 98.82636 
z
" style="fill:#9467bd;stroke:#ffffff;stroke-width:1.385641;"/>
    <path clip-path="url(#p36d21c4437)" d="M 134.943877 138.808357 
L 126.283623 147.468611 
L 134.943877 156.128865 
L 143.604131 147.468611 
z
" style="fill:#9467bd;stroke:#ffffff;stroke-width:1.385641;"/>
    <path clip-path="url(#p36d21c4437)" d="M 142.844518 155.143496 
L 134.184264 163.80375 
L 142.844518 172.464004 
L 151.504772 163.80375 
z
" style="fill:#9467bd;stroke:#ffffff;stroke-width:1.385641;"/>
    <path clip-path="url(#p36d21c4437)" d="M 222.898329 227.101319 
L 219.836466 232.69971 
L 214.238074 235.761573 
L 219.836466 238.823435 
L 222.898329 244.421827 
L 225.960191 238.823435 
L 231.558583 235.761573 
L 225.960191 232.69971 
z
" style="fill:#8c564b;stroke:#ffffff;stroke-width:1.385641;"/>
    <path clip-path="url(#p36d21c4437)" d="M 189.620729 253.652375 
L 186.558867 259.250767 
L 180.960475 262.312629 
L 186.558867 265.374491 
L 189.620729 270.972883 
L 192.682591 265.374491 
L 198.280983 262.312629 
L 192.682591 259.250767 
z
" style="fill:#8c564b;stroke:#ffffff;stroke-width:1.385641;"/>
    <path clip-path="url(#p36d21c4437)" d="M 184.898869 255.082084 
L 181.837007 260.680476 
L 176.238615 263.742338 
L 181.837007 266.8042 
L 184.898869 272.402592 
L 187.960732 266.8042 
L 193.559123 263.742338 
L 187.960732 260.680476 
z
" style="fill:#8c564b;stroke:#ffffff;stroke-width:1.385641;"/>
    <path clip-path="url(#p36d21c4437)" d="M 183.86735 256.237421 
L 180.805488 261.835813 
L 175.207096 264.897675 
L 180.805488 267.959537 
L 183.86735 273.557929 
L 186.929212 267.959537 
L 192.527604 264.897675 
L 186.929212 261.835813 
z
" style="fill:#8c564b;stroke:#ffffff;stroke-width:1.385641;"/>
    <path clip-path="url(#p36d21c4437)" d="M 394.157146 304.148254 
L 398.487273 299.818127 
L 402.8174 304.148254 
L 407.147527 299.818127 
L 402.8174 295.488 
L 407.147527 291.157873 
L 402.8174 286.827746 
L 398.487273 291.157873 
L 394.157146 286.827746 
L 389.827019 291.157873 
L 394.157146 295.488 
L 389.827019 299.818127 
z
" style="fill:#ff7f0e;stroke:#ffffff;stroke-width:1.385641;"/>
    <path clip-path="url(#p36d21c4437)" d="M 226.893107 211.939623 
L 218.232853 229.260131 
L 235.553361 229.260131 
z
" style="fill:#e377c2;stroke:#ffffff;stroke-width:1.385641;"/>
    <path clip-path="url(#p36d21c4437)" d="M 211.785727 213.830497 
L 203.125473 231.151005 
L 220.445981 231.151005 
z
" style="fill:#e377c2;stroke:#ffffff;stroke-width:1.385641;"/>
    <path clip-path="url(#p36d21c4437)" d="M 185.145479 220.899414 
L 176.485225 238.219922 
L 193.805733 238.219922 
z
" style="fill:#e377c2;stroke:#ffffff;stroke-width:1.385641;"/>
    <path clip-path="url(#p36d21c4437)" d="M 156.268902 226.439537 
L 147.608648 243.760045 
L 164.929156 243.760045 
z
" style="fill:#e377c2;stroke:#ffffff;stroke-width:1.385641;"/>
   </g>
   <g id="PathCollection_2"/>
   <g id="PathCollection_3"/>
   <g id="PathCollection_4"/>
   <g id="PathCollection_5"/>
   <g id="PathCollection_6"/>
   <g id="PathCollection_7"/>
   <g id="PathCollection_8"/>
   <g id="matplotlib.axis_1">
    <g id="xtick_1">
     <g id="line2d_1">
      <defs>
       <path d="M 0 0 
L 0 3.5 
" id="m4165dcabe9" style="stroke:#000000;stroke-width:0.8;"/>
      </defs>
      <g>
       <use style="stroke:#000000;stroke-width:0.8;" x="76.722008" xlink:href="#m4165dcabe9" y="307.584"/>
      </g>
     </g>
     <g id="text_1">
      <!-- −10 -->
      <g transform="translate(66.169664 322.182437)scale(0.1 -0.1)">
       <defs>
        <path d="M 678 2272 
L 4684 2272 
L 4684 1741 
L 678 1741 
L 678 2272 
z
" id="DejaVuSans-2212" transform="scale(0.015625)"/>
        <path d="M 794 531 
L 1825 531 
L 1825 4091 
L 703 3866 
L 703 4441 
L 1819 4666 
L 2450 4666 
L 2450 531 
L 3481 531 
L 3481 0 
L 794 0 
L 794 531 
z
" id="DejaVuSans-31" transform="scale(0.015625)"/>
        <path d="M 2034 4250 
Q 1547 4250 1301 3770 
Q 1056 3291 1056 2328 
Q 1056 1369 1301 889 
Q 1547 409 2034 409 
Q 2525 409 2770 889 
Q 3016 1369 3016 2328 
Q 3016 3291 2770 3770 
Q 2525 4250 2034 4250 
z
M 2034 4750 
Q 2819 4750 3233 4129 
Q 3647 3509 3647 2328 
Q 3647 1150 3233 529 
Q 2819 -91 2034 -91 
Q 1250 -91 836 529 
Q 422 1150 422 2328 
Q 422 3509 836 4129 
Q 1250 4750 2034 4750 
z
" id="DejaVuSans-30" transform="scale(0.015625)"/>
       </defs>
       <use xlink:href="#DejaVuSans-2212"/>
       <use x="83.789062" xlink:href="#DejaVuSans-31"/>
       <use x="147.412109" xlink:href="#DejaVuSans-30"/>
      </g>
     </g>
    </g>
    <g id="xtick_2">
     <g id="line2d_2">
      <g>
       <use style="stroke:#000000;stroke-width:0.8;" x="126.545759" xlink:href="#m4165dcabe9" y="307.584"/>
      </g>
     </g>
     <g id="text_2">
      <!-- −5 -->
      <g transform="translate(119.174665 322.182437)scale(0.1 -0.1)">
       <defs>
        <path d="M 691 4666 
L 3169 4666 
L 3169 4134 
L 1269 4134 
L 1269 2991 
Q 1406 3038 1543 3061 
Q 1681 3084 1819 3084 
Q 2600 3084 3056 2656 
Q 3513 2228 3513 1497 
Q 3513 744 3044 326 
Q 2575 -91 1722 -91 
Q 1428 -91 1123 -41 
Q 819 9 494 109 
L 494 744 
Q 775 591 1075 516 
Q 1375 441 1709 441 
Q 2250 441 2565 725 
Q 2881 1009 2881 1497 
Q 2881 1984 2565 2268 
Q 2250 2553 1709 2553 
Q 1456 2553 1204 2497 
Q 953 2441 691 2322 
L 691 4666 
z
" id="DejaVuSans-35" transform="scale(0.015625)"/>
       </defs>
       <use xlink:href="#DejaVuSans-2212"/>
       <use x="83.789062" xlink:href="#DejaVuSans-35"/>
      </g>
     </g>
    </g>
    <g id="xtick_3">
     <g id="line2d_3">
      <g>
       <use style="stroke:#000000;stroke-width:0.8;" x="176.36951" xlink:href="#m4165dcabe9" y="307.584"/>
      </g>
     </g>
     <g id="text_3">
      <!-- 0 -->
      <g transform="translate(173.18826 322.182437)scale(0.1 -0.1)">
       <use xlink:href="#DejaVuSans-30"/>
      </g>
     </g>
    </g>
    <g id="xtick_4">
     <g id="line2d_4">
      <g>
       <use style="stroke:#000000;stroke-width:0.8;" x="226.193261" xlink:href="#m4165dcabe9" y="307.584"/>
      </g>
     </g>
     <g id="text_4">
      <!-- 5 -->
      <g transform="translate(223.012011 322.182437)scale(0.1 -0.1)">
       <use xlink:href="#DejaVuSans-35"/>
      </g>
     </g>
    </g>
    <g id="xtick_5">
     <g id="line2d_5">
      <g>
       <use style="stroke:#000000;stroke-width:0.8;" x="276.017012" xlink:href="#m4165dcabe9" y="307.584"/>
      </g>
     </g>
     <g id="text_5">
      <!-- 10 -->
      <g transform="translate(269.654512 322.182437)scale(0.1 -0.1)">
       <use xlink:href="#DejaVuSans-31"/>
       <use x="63.623047" xlink:href="#DejaVuSans-30"/>
      </g>
     </g>
    </g>
    <g id="xtick_6">
     <g id="line2d_6">
      <g>
       <use style="stroke:#000000;stroke-width:0.8;" x="325.840763" xlink:href="#m4165dcabe9" y="307.584"/>
      </g>
     </g>
     <g id="text_6">
      <!-- 15 -->
      <g transform="translate(319.478263 322.182437)scale(0.1 -0.1)">
       <use xlink:href="#DejaVuSans-31"/>
       <use x="63.623047" xlink:href="#DejaVuSans-35"/>
      </g>
     </g>
    </g>
    <g id="xtick_7">
     <g id="line2d_7">
      <g>
       <use style="stroke:#000000;stroke-width:0.8;" x="375.664514" xlink:href="#m4165dcabe9" y="307.584"/>
      </g>
     </g>
     <g id="text_7">
      <!-- 20 -->
      <g transform="translate(369.302014 322.182437)scale(0.1 -0.1)">
       <defs>
        <path d="M 1228 531 
L 3431 531 
L 3431 0 
L 469 0 
L 469 531 
Q 828 903 1448 1529 
Q 2069 2156 2228 2338 
Q 2531 2678 2651 2914 
Q 2772 3150 2772 3378 
Q 2772 3750 2511 3984 
Q 2250 4219 1831 4219 
Q 1534 4219 1204 4116 
Q 875 4013 500 3803 
L 500 4441 
Q 881 4594 1212 4672 
Q 1544 4750 1819 4750 
Q 2544 4750 2975 4387 
Q 3406 4025 3406 3419 
Q 3406 3131 3298 2873 
Q 3191 2616 2906 2266 
Q 2828 2175 2409 1742 
Q 1991 1309 1228 531 
z
" id="DejaVuSans-32" transform="scale(0.015625)"/>
       </defs>
       <use xlink:href="#DejaVuSans-32"/>
       <use x="63.623047" xlink:href="#DejaVuSans-30"/>
      </g>
     </g>
    </g>
    <g id="text_8">
     <!-- PC1 (50.57 %) -->
     <g transform="translate(200.327969 335.860562)scale(0.1 -0.1)">
      <defs>
       <path d="M 1259 4147 
L 1259 2394 
L 2053 2394 
Q 2494 2394 2734 2622 
Q 2975 2850 2975 3272 
Q 2975 3691 2734 3919 
Q 2494 4147 2053 4147 
L 1259 4147 
z
M 628 4666 
L 2053 4666 
Q 2838 4666 3239 4311 
Q 3641 3956 3641 3272 
Q 3641 2581 3239 2228 
Q 2838 1875 2053 1875 
L 1259 1875 
L 1259 0 
L 628 0 
L 628 4666 
z
" id="DejaVuSans-50" transform="scale(0.015625)"/>
       <path d="M 4122 4306 
L 4122 3641 
Q 3803 3938 3442 4084 
Q 3081 4231 2675 4231 
Q 1875 4231 1450 3742 
Q 1025 3253 1025 2328 
Q 1025 1406 1450 917 
Q 1875 428 2675 428 
Q 3081 428 3442 575 
Q 3803 722 4122 1019 
L 4122 359 
Q 3791 134 3420 21 
Q 3050 -91 2638 -91 
Q 1578 -91 968 557 
Q 359 1206 359 2328 
Q 359 3453 968 4101 
Q 1578 4750 2638 4750 
Q 3056 4750 3426 4639 
Q 3797 4528 4122 4306 
z
" id="DejaVuSans-43" transform="scale(0.015625)"/>
       <path id="DejaVuSans-20" transform="scale(0.015625)"/>
       <path d="M 1984 4856 
Q 1566 4138 1362 3434 
Q 1159 2731 1159 2009 
Q 1159 1288 1364 580 
Q 1569 -128 1984 -844 
L 1484 -844 
Q 1016 -109 783 600 
Q 550 1309 550 2009 
Q 550 2706 781 3412 
Q 1013 4119 1484 4856 
L 1984 4856 
z
" id="DejaVuSans-28" transform="scale(0.015625)"/>
       <path d="M 684 794 
L 1344 794 
L 1344 0 
L 684 0 
L 684 794 
z
" id="DejaVuSans-2e" transform="scale(0.015625)"/>
       <path d="M 525 4666 
L 3525 4666 
L 3525 4397 
L 1831 0 
L 1172 0 
L 2766 4134 
L 525 4134 
L 525 4666 
z
" id="DejaVuSans-37" transform="scale(0.015625)"/>
       <path d="M 4653 2053 
Q 4381 2053 4226 1822 
Q 4072 1591 4072 1178 
Q 4072 772 4226 539 
Q 4381 306 4653 306 
Q 4919 306 5073 539 
Q 5228 772 5228 1178 
Q 5228 1588 5073 1820 
Q 4919 2053 4653 2053 
z
M 4653 2450 
Q 5147 2450 5437 2106 
Q 5728 1763 5728 1178 
Q 5728 594 5436 251 
Q 5144 -91 4653 -91 
Q 4153 -91 3862 251 
Q 3572 594 3572 1178 
Q 3572 1766 3864 2108 
Q 4156 2450 4653 2450 
z
M 1428 4353 
Q 1159 4353 1004 4120 
Q 850 3888 850 3481 
Q 850 3069 1003 2837 
Q 1156 2606 1428 2606 
Q 1700 2606 1854 2837 
Q 2009 3069 2009 3481 
Q 2009 3884 1853 4118 
Q 1697 4353 1428 4353 
z
M 4250 4750 
L 4750 4750 
L 1831 -91 
L 1331 -91 
L 4250 4750 
z
M 1428 4750 
Q 1922 4750 2215 4408 
Q 2509 4066 2509 3481 
Q 2509 2891 2217 2550 
Q 1925 2209 1428 2209 
Q 931 2209 642 2551 
Q 353 2894 353 3481 
Q 353 4063 643 4406 
Q 934 4750 1428 4750 
z
" id="DejaVuSans-25" transform="scale(0.015625)"/>
       <path d="M 513 4856 
L 1013 4856 
Q 1481 4119 1714 3412 
Q 1947 2706 1947 2009 
Q 1947 1309 1714 600 
Q 1481 -109 1013 -844 
L 513 -844 
Q 928 -128 1133 580 
Q 1338 1288 1338 2009 
Q 1338 2731 1133 3434 
Q 928 4138 513 4856 
z
" id="DejaVuSans-29" transform="scale(0.015625)"/>
      </defs>
      <use xlink:href="#DejaVuSans-50"/>
      <use x="60.302734" xlink:href="#DejaVuSans-43"/>
      <use x="130.126953" xlink:href="#DejaVuSans-31"/>
      <use x="193.75" xlink:href="#DejaVuSans-20"/>
      <use x="225.537109" xlink:href="#DejaVuSans-28"/>
      <use x="264.550781" xlink:href="#DejaVuSans-35"/>
      <use x="328.173828" xlink:href="#DejaVuSans-30"/>
      <use x="391.796875" xlink:href="#DejaVuSans-2e"/>
      <use x="423.583984" xlink:href="#DejaVuSans-35"/>
      <use x="487.207031" xlink:href="#DejaVuSans-37"/>
      <use x="550.830078" xlink:href="#DejaVuSans-20"/>
      <use x="582.617188" xlink:href="#DejaVuSans-25"/>
      <use x="677.636719" xlink:href="#DejaVuSans-29"/>
     </g>
    </g>
   </g>
   <g id="matplotlib.axis_2">
    <g id="ytick_1">
     <g id="line2d_8">
      <defs>
       <path d="M 0 0 
L -3.5 0 
" id="m38571609ef" style="stroke:#000000;stroke-width:0.8;"/>
      </defs>
      <g>
       <use style="stroke:#000000;stroke-width:0.8;" x="57.6" xlink:href="#m38571609ef" y="296.290924"/>
      </g>
     </g>
     <g id="text_9">
      <!-- −7.5 -->
      <g transform="translate(26.317187 300.090143)scale(0.1 -0.1)">
       <use xlink:href="#DejaVuSans-2212"/>
       <use x="83.789062" xlink:href="#DejaVuSans-37"/>
       <use x="147.412109" xlink:href="#DejaVuSans-2e"/>
       <use x="179.199219" xlink:href="#DejaVuSans-35"/>
      </g>
     </g>
    </g>
    <g id="ytick_2">
     <g id="line2d_9">
      <g>
       <use style="stroke:#000000;stroke-width:0.8;" x="57.6" xlink:href="#m38571609ef" y="266.133975"/>
      </g>
     </g>
     <g id="text_10">
      <!-- −5.0 -->
      <g transform="translate(26.317187 269.933194)scale(0.1 -0.1)">
       <use xlink:href="#DejaVuSans-2212"/>
       <use x="83.789062" xlink:href="#DejaVuSans-35"/>
       <use x="147.412109" xlink:href="#DejaVuSans-2e"/>
       <use x="179.199219" xlink:href="#DejaVuSans-30"/>
      </g>
     </g>
    </g>
    <g id="ytick_3">
     <g id="line2d_10">
      <g>
       <use style="stroke:#000000;stroke-width:0.8;" x="57.6" xlink:href="#m38571609ef" y="235.977025"/>
      </g>
     </g>
     <g id="text_11">
      <!-- −2.5 -->
      <g transform="translate(26.317187 239.776244)scale(0.1 -0.1)">
       <use xlink:href="#DejaVuSans-2212"/>
       <use x="83.789062" xlink:href="#DejaVuSans-32"/>
       <use x="147.412109" xlink:href="#DejaVuSans-2e"/>
       <use x="179.199219" xlink:href="#DejaVuSans-35"/>
      </g>
     </g>
    </g>
    <g id="ytick_4">
     <g id="line2d_11">
      <g>
       <use style="stroke:#000000;stroke-width:0.8;" x="57.6" xlink:href="#m38571609ef" y="205.820076"/>
      </g>
     </g>
     <g id="text_12">
      <!-- 0.0 -->
      <g transform="translate(34.696875 209.619294)scale(0.1 -0.1)">
       <use xlink:href="#DejaVuSans-30"/>
       <use x="63.623047" xlink:href="#DejaVuSans-2e"/>
       <use x="95.410156" xlink:href="#DejaVuSans-30"/>
      </g>
     </g>
    </g>
    <g id="ytick_5">
     <g id="line2d_12">
      <g>
       <use style="stroke:#000000;stroke-width:0.8;" x="57.6" xlink:href="#m38571609ef" y="175.663126"/>
      </g>
     </g>
     <g id="text_13">
      <!-- 2.5 -->
      <g transform="translate(34.696875 179.462345)scale(0.1 -0.1)">
       <use xlink:href="#DejaVuSans-32"/>
       <use x="63.623047" xlink:href="#DejaVuSans-2e"/>
       <use x="95.410156" xlink:href="#DejaVuSans-35"/>
      </g>
     </g>
    </g>
    <g id="ytick_6">
     <g id="line2d_13">
      <g>
       <use style="stroke:#000000;stroke-width:0.8;" x="57.6" xlink:href="#m38571609ef" y="145.506177"/>
      </g>
     </g>
     <g id="text_14">
      <!-- 5.0 -->
      <g transform="translate(34.696875 149.305395)scale(0.1 -0.1)">
       <use xlink:href="#DejaVuSans-35"/>
       <use x="63.623047" xlink:href="#DejaVuSans-2e"/>
       <use x="95.410156" xlink:href="#DejaVuSans-30"/>
      </g>
     </g>
    </g>
    <g id="ytick_7">
     <g id="line2d_14">
      <g>
       <use style="stroke:#000000;stroke-width:0.8;" x="57.6" xlink:href="#m38571609ef" y="115.349227"/>
      </g>
     </g>
     <g id="text_15">
      <!-- 7.5 -->
      <g transform="translate(34.696875 119.148446)scale(0.1 -0.1)">
       <use xlink:href="#DejaVuSans-37"/>
       <use x="63.623047" xlink:href="#DejaVuSans-2e"/>
       <use x="95.410156" xlink:href="#DejaVuSans-35"/>
      </g>
     </g>
    </g>
    <g id="ytick_8">
     <g id="line2d_15">
      <g>
       <use style="stroke:#000000;stroke-width:0.8;" x="57.6" xlink:href="#m38571609ef" y="85.192277"/>
      </g>
     </g>
     <g id="text_16">
      <!-- 10.0 -->
      <g transform="translate(28.334375 88.991496)scale(0.1 -0.1)">
       <use xlink:href="#DejaVuSans-31"/>
       <use x="63.623047" xlink:href="#DejaVuSans-30"/>
       <use x="127.246094" xlink:href="#DejaVuSans-2e"/>
       <use x="159.033203" xlink:href="#DejaVuSans-30"/>
      </g>
     </g>
    </g>
    <g id="ytick_9">
     <g id="line2d_16">
      <g>
       <use style="stroke:#000000;stroke-width:0.8;" x="57.6" xlink:href="#m38571609ef" y="55.035328"/>
      </g>
     </g>
     <g id="text_17">
      <!-- 12.5 -->
      <g transform="translate(28.334375 58.834547)scale(0.1 -0.1)">
       <use xlink:href="#DejaVuSans-31"/>
       <use x="63.623047" xlink:href="#DejaVuSans-32"/>
       <use x="127.246094" xlink:href="#DejaVuSans-2e"/>
       <use x="159.033203" xlink:href="#DejaVuSans-35"/>
      </g>
     </g>
    </g>
    <g id="text_18">
     <!-- PC2 (28.39 %) -->
     <g transform="translate(20.2375 210.360031)rotate(-90)scale(0.1 -0.1)">
      <defs>
       <path d="M 2034 2216 
Q 1584 2216 1326 1975 
Q 1069 1734 1069 1313 
Q 1069 891 1326 650 
Q 1584 409 2034 409 
Q 2484 409 2743 651 
Q 3003 894 3003 1313 
Q 3003 1734 2745 1975 
Q 2488 2216 2034 2216 
z
M 1403 2484 
Q 997 2584 770 2862 
Q 544 3141 544 3541 
Q 544 4100 942 4425 
Q 1341 4750 2034 4750 
Q 2731 4750 3128 4425 
Q 3525 4100 3525 3541 
Q 3525 3141 3298 2862 
Q 3072 2584 2669 2484 
Q 3125 2378 3379 2068 
Q 3634 1759 3634 1313 
Q 3634 634 3220 271 
Q 2806 -91 2034 -91 
Q 1263 -91 848 271 
Q 434 634 434 1313 
Q 434 1759 690 2068 
Q 947 2378 1403 2484 
z
M 1172 3481 
Q 1172 3119 1398 2916 
Q 1625 2713 2034 2713 
Q 2441 2713 2670 2916 
Q 2900 3119 2900 3481 
Q 2900 3844 2670 4047 
Q 2441 4250 2034 4250 
Q 1625 4250 1398 4047 
Q 1172 3844 1172 3481 
z
" id="DejaVuSans-38" transform="scale(0.015625)"/>
       <path d="M 2597 2516 
Q 3050 2419 3304 2112 
Q 3559 1806 3559 1356 
Q 3559 666 3084 287 
Q 2609 -91 1734 -91 
Q 1441 -91 1130 -33 
Q 819 25 488 141 
L 488 750 
Q 750 597 1062 519 
Q 1375 441 1716 441 
Q 2309 441 2620 675 
Q 2931 909 2931 1356 
Q 2931 1769 2642 2001 
Q 2353 2234 1838 2234 
L 1294 2234 
L 1294 2753 
L 1863 2753 
Q 2328 2753 2575 2939 
Q 2822 3125 2822 3475 
Q 2822 3834 2567 4026 
Q 2313 4219 1838 4219 
Q 1578 4219 1281 4162 
Q 984 4106 628 3988 
L 628 4550 
Q 988 4650 1302 4700 
Q 1616 4750 1894 4750 
Q 2613 4750 3031 4423 
Q 3450 4097 3450 3541 
Q 3450 3153 3228 2886 
Q 3006 2619 2597 2516 
z
" id="DejaVuSans-33" transform="scale(0.015625)"/>
       <path d="M 703 97 
L 703 672 
Q 941 559 1184 500 
Q 1428 441 1663 441 
Q 2288 441 2617 861 
Q 2947 1281 2994 2138 
Q 2813 1869 2534 1725 
Q 2256 1581 1919 1581 
Q 1219 1581 811 2004 
Q 403 2428 403 3163 
Q 403 3881 828 4315 
Q 1253 4750 1959 4750 
Q 2769 4750 3195 4129 
Q 3622 3509 3622 2328 
Q 3622 1225 3098 567 
Q 2575 -91 1691 -91 
Q 1453 -91 1209 -44 
Q 966 3 703 97 
z
M 1959 2075 
Q 2384 2075 2632 2365 
Q 2881 2656 2881 3163 
Q 2881 3666 2632 3958 
Q 2384 4250 1959 4250 
Q 1534 4250 1286 3958 
Q 1038 3666 1038 3163 
Q 1038 2656 1286 2365 
Q 1534 2075 1959 2075 
z
" id="DejaVuSans-39" transform="scale(0.015625)"/>
      </defs>
      <use xlink:href="#DejaVuSans-50"/>
      <use x="60.302734" xlink:href="#DejaVuSans-43"/>
      <use x="130.126953" xlink:href="#DejaVuSans-32"/>
      <use x="193.75" xlink:href="#DejaVuSans-20"/>
      <use x="225.537109" xlink:href="#DejaVuSans-28"/>
      <use x="264.550781" xlink:href="#DejaVuSans-32"/>
      <use x="328.173828" xlink:href="#DejaVuSans-38"/>
      <use x="391.796875" xlink:href="#DejaVuSans-2e"/>
      <use x="423.583984" xlink:href="#DejaVuSans-33"/>
      <use x="487.207031" xlink:href="#DejaVuSans-39"/>
      <use x="550.830078" xlink:href="#DejaVuSans-20"/>
      <use x="582.617188" xlink:href="#DejaVuSans-25"/>
      <use x="677.636719" xlink:href="#DejaVuSans-29"/>
     </g>
    </g>
   </g>
   <g id="patch_3">
    <path d="M 57.6 307.584 
L 57.6 41.472 
" style="fill:none;stroke:#000000;stroke-linecap:square;stroke-linejoin:miter;stroke-width:0.8;"/>
   </g>
   <g id="patch_4">
    <path d="M 414.72 307.584 
L 414.72 41.472 
" style="fill:none;stroke:#000000;stroke-linecap:square;stroke-linejoin:miter;stroke-width:0.8;"/>
   </g>
   <g id="patch_5">
    <path d="M 57.6 307.584 
L 414.72 307.584 
" style="fill:none;stroke:#000000;stroke-linecap:square;stroke-linejoin:miter;stroke-width:0.8;"/>
   </g>
   <g id="patch_6">
    <path d="M 57.6 41.472 
L 414.72 41.472 
" style="fill:none;stroke:#000000;stroke-linecap:square;stroke-linejoin:miter;stroke-width:0.8;"/>
   </g>
   <g id="text_19">
    <g id="patch_7">
     <path d="M 96.988326 219.755096 
L 146.150826 219.755096 
L 146.150826 202.076971 
L 96.988326 202.076971 
z
" style="fill:#ffff00;opacity:0.3;stroke:#000000;stroke-linejoin:miter;"/>
    </g>
    <!-- V+B 0.5 -->
    <g style="fill:#ff0000;" transform="translate(100.988326 213.675409)scale(0.1 -0.1)">
     <defs>
      <path d="M 1831 0 
L 50 4666 
L 709 4666 
L 2188 738 
L 3669 4666 
L 4325 4666 
L 2547 0 
L 1831 0 
z
" id="DejaVuSans-56" transform="scale(0.015625)"/>
      <path d="M 2944 4013 
L 2944 2272 
L 4684 2272 
L 4684 1741 
L 2944 1741 
L 2944 0 
L 2419 0 
L 2419 1741 
L 678 1741 
L 678 2272 
L 2419 2272 
L 2419 4013 
L 2944 4013 
z
" id="DejaVuSans-2b" transform="scale(0.015625)"/>
      <path d="M 1259 2228 
L 1259 519 
L 2272 519 
Q 2781 519 3026 730 
Q 3272 941 3272 1375 
Q 3272 1813 3026 2020 
Q 2781 2228 2272 2228 
L 1259 2228 
z
M 1259 4147 
L 1259 2741 
L 2194 2741 
Q 2656 2741 2882 2914 
Q 3109 3088 3109 3444 
Q 3109 3797 2882 3972 
Q 2656 4147 2194 4147 
L 1259 4147 
z
M 628 4666 
L 2241 4666 
Q 2963 4666 3353 4366 
Q 3744 4066 3744 3513 
Q 3744 3084 3544 2831 
Q 3344 2578 2956 2516 
Q 3422 2416 3680 2098 
Q 3938 1781 3938 1306 
Q 3938 681 3513 340 
Q 3088 0 2303 0 
L 628 0 
L 628 4666 
z
" id="DejaVuSans-42" transform="scale(0.015625)"/>
     </defs>
     <use xlink:href="#DejaVuSans-56"/>
     <use x="68.408203" xlink:href="#DejaVuSans-2b"/>
     <use x="152.197266" xlink:href="#DejaVuSans-42"/>
     <use x="220.800781" xlink:href="#DejaVuSans-20"/>
     <use x="252.587891" xlink:href="#DejaVuSans-30"/>
     <use x="316.210938" xlink:href="#DejaVuSans-2e"/>
     <use x="347.998047" xlink:href="#DejaVuSans-35"/>
    </g>
   </g>
   <g id="text_20">
    <g id="patch_8">
     <path d="M 99.473679 246.401778 
L 139.095554 246.401778 
L 139.095554 228.723653 
L 99.473679 228.723653 
z
" style="fill:#ffff00;opacity:0.3;stroke:#000000;stroke-linejoin:miter;"/>
    </g>
    <!-- V+B 1 -->
    <g style="fill:#ff0000;" transform="translate(103.473679 240.322091)scale(0.1 -0.1)">
     <use xlink:href="#DejaVuSans-56"/>
     <use x="68.408203" xlink:href="#DejaVuSans-2b"/>
     <use x="152.197266" xlink:href="#DejaVuSans-42"/>
     <use x="220.800781" xlink:href="#DejaVuSans-20"/>
     <use x="252.587891" xlink:href="#DejaVuSans-31"/>
    </g>
   </g>
   <g id="text_21">
    <g id="patch_9">
     <path d="M 72.822152 251.879773 
L 121.984652 251.879773 
L 121.984652 234.201648 
L 72.822152 234.201648 
z
" style="fill:#ffff00;opacity:0.3;stroke:#000000;stroke-linejoin:miter;"/>
    </g>
    <!-- V+B 1.5 -->
    <g style="fill:#ff0000;" transform="translate(76.822152 245.800086)scale(0.1 -0.1)">
     <use xlink:href="#DejaVuSans-56"/>
     <use x="68.408203" xlink:href="#DejaVuSans-2b"/>
     <use x="152.197266" xlink:href="#DejaVuSans-42"/>
     <use x="220.800781" xlink:href="#DejaVuSans-20"/>
     <use x="252.587891" xlink:href="#DejaVuSans-31"/>
     <use x="316.210938" xlink:href="#DejaVuSans-2e"/>
     <use x="347.998047" xlink:href="#DejaVuSans-35"/>
    </g>
   </g>
   <g id="text_22">
    <g id="patch_10">
     <path d="M 77.795645 250.878943 
L 117.41752 250.878943 
L 117.41752 233.200818 
L 77.795645 233.200818 
z
" style="fill:#ffff00;opacity:0.3;stroke:#000000;stroke-linejoin:miter;"/>
    </g>
    <!-- V+B 2 -->
    <g style="fill:#ff0000;" transform="translate(81.795645 244.799256)scale(0.1 -0.1)">
     <use xlink:href="#DejaVuSans-56"/>
     <use x="68.408203" xlink:href="#DejaVuSans-2b"/>
     <use x="152.197266" xlink:href="#DejaVuSans-42"/>
     <use x="220.800781" xlink:href="#DejaVuSans-20"/>
     <use x="252.587891" xlink:href="#DejaVuSans-32"/>
    </g>
   </g>
   <g id="text_23">
    <g id="patch_11">
     <path d="M 306.108362 296.356743 
L 360.2693 296.356743 
L 360.2693 278.678618 
L 306.108362 278.678618 
z
" style="fill:#ffff00;opacity:0.3;stroke:#000000;stroke-linejoin:miter;"/>
    </g>
    <!-- V Control -->
    <g style="fill:#ff0000;" transform="translate(310.108362 290.277056)scale(0.1 -0.1)">
     <defs>
      <path d="M 1959 3097 
Q 1497 3097 1228 2736 
Q 959 2375 959 1747 
Q 959 1119 1226 758 
Q 1494 397 1959 397 
Q 2419 397 2687 759 
Q 2956 1122 2956 1747 
Q 2956 2369 2687 2733 
Q 2419 3097 1959 3097 
z
M 1959 3584 
Q 2709 3584 3137 3096 
Q 3566 2609 3566 1747 
Q 3566 888 3137 398 
Q 2709 -91 1959 -91 
Q 1206 -91 779 398 
Q 353 888 353 1747 
Q 353 2609 779 3096 
Q 1206 3584 1959 3584 
z
" id="DejaVuSans-6f" transform="scale(0.015625)"/>
      <path d="M 3513 2113 
L 3513 0 
L 2938 0 
L 2938 2094 
Q 2938 2591 2744 2837 
Q 2550 3084 2163 3084 
Q 1697 3084 1428 2787 
Q 1159 2491 1159 1978 
L 1159 0 
L 581 0 
L 581 3500 
L 1159 3500 
L 1159 2956 
Q 1366 3272 1645 3428 
Q 1925 3584 2291 3584 
Q 2894 3584 3203 3211 
Q 3513 2838 3513 2113 
z
" id="DejaVuSans-6e" transform="scale(0.015625)"/>
      <path d="M 1172 4494 
L 1172 3500 
L 2356 3500 
L 2356 3053 
L 1172 3053 
L 1172 1153 
Q 1172 725 1289 603 
Q 1406 481 1766 481 
L 2356 481 
L 2356 0 
L 1766 0 
Q 1100 0 847 248 
Q 594 497 594 1153 
L 594 3053 
L 172 3053 
L 172 3500 
L 594 3500 
L 594 4494 
L 1172 4494 
z
" id="DejaVuSans-74" transform="scale(0.015625)"/>
      <path d="M 2631 2963 
Q 2534 3019 2420 3045 
Q 2306 3072 2169 3072 
Q 1681 3072 1420 2755 
Q 1159 2438 1159 1844 
L 1159 0 
L 581 0 
L 581 3500 
L 1159 3500 
L 1159 2956 
Q 1341 3275 1631 3429 
Q 1922 3584 2338 3584 
Q 2397 3584 2469 3576 
Q 2541 3569 2628 3553 
L 2631 2963 
z
" id="DejaVuSans-72" transform="scale(0.015625)"/>
      <path d="M 603 4863 
L 1178 4863 
L 1178 0 
L 603 0 
L 603 4863 
z
" id="DejaVuSans-6c" transform="scale(0.015625)"/>
     </defs>
     <use xlink:href="#DejaVuSans-56"/>
     <use x="68.408203" xlink:href="#DejaVuSans-20"/>
     <use x="100.195312" xlink:href="#DejaVuSans-43"/>
     <use x="170.019531" xlink:href="#DejaVuSans-6f"/>
     <use x="231.201172" xlink:href="#DejaVuSans-6e"/>
     <use x="294.580078" xlink:href="#DejaVuSans-74"/>
     <use x="333.789062" xlink:href="#DejaVuSans-72"/>
     <use x="372.652344" xlink:href="#DejaVuSans-6f"/>
     <use x="433.833984" xlink:href="#DejaVuSans-6c"/>
    </g>
   </g>
   <g id="text_24">
    <g id="patch_12">
     <path d="M 78.98519 276.122724 
L 127.31644 276.122724 
L 127.31644 258.444599 
L 78.98519 258.444599 
z
" style="fill:#ffff00;opacity:0.3;stroke:#000000;stroke-linejoin:miter;"/>
    </g>
    <!-- V+P 0.5 -->
    <g style="fill:#ff0000;" transform="translate(82.98519 270.043036)scale(0.1 -0.1)">
     <use xlink:href="#DejaVuSans-56"/>
     <use x="68.408203" xlink:href="#DejaVuSans-2b"/>
     <use x="152.197266" xlink:href="#DejaVuSans-50"/>
     <use x="212.5" xlink:href="#DejaVuSans-20"/>
     <use x="244.287109" xlink:href="#DejaVuSans-30"/>
     <use x="307.910156" xlink:href="#DejaVuSans-2e"/>
     <use x="339.697266" xlink:href="#DejaVuSans-35"/>
    </g>
   </g>
   <g id="text_25">
    <g id="patch_13">
     <path d="M 92.212765 267.394757 
L 131.00339 267.394757 
L 131.00339 249.716632 
L 92.212765 249.716632 
z
" style="fill:#ffff00;opacity:0.3;stroke:#000000;stroke-linejoin:miter;"/>
    </g>
    <!-- V+P 1 -->
    <g style="fill:#ff0000;" transform="translate(96.212765 261.315069)scale(0.1 -0.1)">
     <use xlink:href="#DejaVuSans-56"/>
     <use x="68.408203" xlink:href="#DejaVuSans-2b"/>
     <use x="152.197266" xlink:href="#DejaVuSans-50"/>
     <use x="212.5" xlink:href="#DejaVuSans-20"/>
     <use x="244.287109" xlink:href="#DejaVuSans-31"/>
    </g>
   </g>
   <g id="text_26">
    <g id="patch_14">
     <path d="M 115.232669 270.288027 
L 163.563919 270.288027 
L 163.563919 252.609902 
L 115.232669 252.609902 
z
" style="fill:#ffff00;opacity:0.3;stroke:#000000;stroke-linejoin:miter;"/>
    </g>
    <!-- V+P 1.5 -->
    <g style="fill:#ff0000;" transform="translate(119.232669 264.208339)scale(0.1 -0.1)">
     <use xlink:href="#DejaVuSans-56"/>
     <use x="68.408203" xlink:href="#DejaVuSans-2b"/>
     <use x="152.197266" xlink:href="#DejaVuSans-50"/>
     <use x="212.5" xlink:href="#DejaVuSans-20"/>
     <use x="244.287109" xlink:href="#DejaVuSans-31"/>
     <use x="307.910156" xlink:href="#DejaVuSans-2e"/>
     <use x="339.697266" xlink:href="#DejaVuSans-35"/>
    </g>
   </g>
   <g id="text_27">
    <g id="patch_15">
     <path d="M 116.980408 266.186847 
L 155.771033 266.186847 
L 155.771033 248.508722 
L 116.980408 248.508722 
z
" style="fill:#ffff00;opacity:0.3;stroke:#000000;stroke-linejoin:miter;"/>
    </g>
    <!-- V+P 2 -->
    <g style="fill:#ff0000;" transform="translate(120.980408 260.107159)scale(0.1 -0.1)">
     <use xlink:href="#DejaVuSans-56"/>
     <use x="68.408203" xlink:href="#DejaVuSans-2b"/>
     <use x="152.197266" xlink:href="#DejaVuSans-50"/>
     <use x="212.5" xlink:href="#DejaVuSans-20"/>
     <use x="244.287109" xlink:href="#DejaVuSans-32"/>
    </g>
   </g>
   <g id="text_28">
    <g id="patch_16">
     <path d="M 210.394011 56.028854 
L 261.344011 56.028854 
L 261.344011 38.350729 
L 210.394011 38.350729 
z
" style="fill:#ffff00;opacity:0.3;stroke:#000000;stroke-linejoin:miter;"/>
    </g>
    <!-- M+B 0.5 -->
    <g style="fill:#ff0000;" transform="translate(214.394011 49.949166)scale(0.1 -0.1)">
     <defs>
      <path d="M 628 4666 
L 1569 4666 
L 2759 1491 
L 3956 4666 
L 4897 4666 
L 4897 0 
L 4281 0 
L 4281 4097 
L 3078 897 
L 2444 897 
L 1241 4097 
L 1241 0 
L 628 0 
L 628 4666 
z
" id="DejaVuSans-4d" transform="scale(0.015625)"/>
     </defs>
     <use xlink:href="#DejaVuSans-4d"/>
     <use x="86.279297" xlink:href="#DejaVuSans-2b"/>
     <use x="170.068359" xlink:href="#DejaVuSans-42"/>
     <use x="238.671875" xlink:href="#DejaVuSans-20"/>
     <use x="270.458984" xlink:href="#DejaVuSans-30"/>
     <use x="334.082031" xlink:href="#DejaVuSans-2e"/>
     <use x="365.869141" xlink:href="#DejaVuSans-35"/>
    </g>
   </g>
   <g id="text_29">
    <g id="patch_17">
     <path d="M 173.229034 94.461719 
L 214.638409 94.461719 
L 214.638409 76.783594 
L 173.229034 76.783594 
z
" style="fill:#ffff00;opacity:0.3;stroke:#000000;stroke-linejoin:miter;"/>
    </g>
    <!-- M+B 1 -->
    <g style="fill:#ff0000;" transform="translate(177.229034 88.382031)scale(0.1 -0.1)">
     <use xlink:href="#DejaVuSans-4d"/>
     <use x="86.279297" xlink:href="#DejaVuSans-2b"/>
     <use x="170.068359" xlink:href="#DejaVuSans-42"/>
     <use x="238.671875" xlink:href="#DejaVuSans-20"/>
     <use x="270.458984" xlink:href="#DejaVuSans-31"/>
    </g>
   </g>
   <g id="text_30">
    <g id="patch_18">
     <path d="M 187.734448 84.085371 
L 238.684448 84.085371 
L 238.684448 66.407246 
L 187.734448 66.407246 
z
" style="fill:#ffff00;opacity:0.3;stroke:#000000;stroke-linejoin:miter;"/>
    </g>
    <!-- M+B 1.5 -->
    <g style="fill:#ff0000;" transform="translate(191.734448 78.005683)scale(0.1 -0.1)">
     <use xlink:href="#DejaVuSans-4d"/>
     <use x="86.279297" xlink:href="#DejaVuSans-2b"/>
     <use x="170.068359" xlink:href="#DejaVuSans-42"/>
     <use x="238.671875" xlink:href="#DejaVuSans-20"/>
     <use x="270.458984" xlink:href="#DejaVuSans-31"/>
     <use x="334.082031" xlink:href="#DejaVuSans-2e"/>
     <use x="365.869141" xlink:href="#DejaVuSans-35"/>
    </g>
   </g>
   <g id="text_31">
    <g id="patch_19">
     <path d="M 147.95496 72.886154 
L 189.364335 72.886154 
L 189.364335 55.208029 
L 147.95496 55.208029 
z
" style="fill:#ffff00;opacity:0.3;stroke:#000000;stroke-linejoin:miter;"/>
    </g>
    <!-- M+B 2 -->
    <g style="fill:#ff0000;" transform="translate(151.95496 66.806466)scale(0.1 -0.1)">
     <use xlink:href="#DejaVuSans-4d"/>
     <use x="86.279297" xlink:href="#DejaVuSans-2b"/>
     <use x="170.068359" xlink:href="#DejaVuSans-42"/>
     <use x="238.671875" xlink:href="#DejaVuSans-20"/>
     <use x="270.458984" xlink:href="#DejaVuSans-32"/>
    </g>
   </g>
   <g id="text_32">
    <g id="patch_20">
     <path d="M 379.920376 181.635487 
L 435.868813 181.635487 
L 435.868813 163.957362 
L 379.920376 163.957362 
z
" style="fill:#ffff00;opacity:0.3;stroke:#000000;stroke-linejoin:miter;"/>
    </g>
    <!-- M Control -->
    <g style="fill:#ff0000;" transform="translate(383.920376 175.555799)scale(0.1 -0.1)">
     <use xlink:href="#DejaVuSans-4d"/>
     <use x="86.279297" xlink:href="#DejaVuSans-20"/>
     <use x="118.066406" xlink:href="#DejaVuSans-43"/>
     <use x="187.890625" xlink:href="#DejaVuSans-6f"/>
     <use x="249.072266" xlink:href="#DejaVuSans-6e"/>
     <use x="312.451172" xlink:href="#DejaVuSans-74"/>
     <use x="351.660156" xlink:href="#DejaVuSans-72"/>
     <use x="390.523438" xlink:href="#DejaVuSans-6f"/>
     <use x="451.705078" xlink:href="#DejaVuSans-6c"/>
    </g>
   </g>
   <g id="text_33">
    <g id="patch_21">
     <path d="M 187.718863 119.641553 
L 237.837613 119.641553 
L 237.837613 101.963428 
L 187.718863 101.963428 
z
" style="fill:#ffff00;opacity:0.3;stroke:#000000;stroke-linejoin:miter;"/>
    </g>
    <!-- M+P 0.5 -->
    <g style="fill:#ff0000;" transform="translate(191.718863 113.561865)scale(0.1 -0.1)">
     <use xlink:href="#DejaVuSans-4d"/>
     <use x="86.279297" xlink:href="#DejaVuSans-2b"/>
     <use x="170.068359" xlink:href="#DejaVuSans-50"/>
     <use x="230.371094" xlink:href="#DejaVuSans-20"/>
     <use x="262.158203" xlink:href="#DejaVuSans-30"/>
     <use x="325.78125" xlink:href="#DejaVuSans-2e"/>
     <use x="357.568359" xlink:href="#DejaVuSans-35"/>
    </g>
   </g>
   <g id="text_34">
    <g id="patch_22">
     <path d="M 164.602523 101.287213 
L 205.180648 101.287213 
L 205.180648 83.609088 
L 164.602523 83.609088 
z
" style="fill:#ffff00;opacity:0.3;stroke:#000000;stroke-linejoin:miter;"/>
    </g>
    <!-- M+P 1 -->
    <g style="fill:#ff0000;" transform="translate(168.602523 95.207526)scale(0.1 -0.1)">
     <use xlink:href="#DejaVuSans-4d"/>
     <use x="86.279297" xlink:href="#DejaVuSans-2b"/>
     <use x="170.068359" xlink:href="#DejaVuSans-50"/>
     <use x="230.371094" xlink:href="#DejaVuSans-20"/>
     <use x="262.158203" xlink:href="#DejaVuSans-31"/>
    </g>
   </g>
   <g id="text_35">
    <g id="patch_23">
     <path d="M 133.933302 149.929465 
L 184.052052 149.929465 
L 184.052052 132.25134 
L 133.933302 132.25134 
z
" style="fill:#ffff00;opacity:0.3;stroke:#000000;stroke-linejoin:miter;"/>
    </g>
    <!-- M+P 1.5 -->
    <g style="fill:#ff0000;" transform="translate(137.933302 143.849777)scale(0.1 -0.1)">
     <use xlink:href="#DejaVuSans-4d"/>
     <use x="86.279297" xlink:href="#DejaVuSans-2b"/>
     <use x="170.068359" xlink:href="#DejaVuSans-50"/>
     <use x="230.371094" xlink:href="#DejaVuSans-20"/>
     <use x="262.158203" xlink:href="#DejaVuSans-31"/>
     <use x="325.78125" xlink:href="#DejaVuSans-2e"/>
     <use x="357.568359" xlink:href="#DejaVuSans-35"/>
    </g>
   </g>
   <g id="text_36">
    <g id="patch_24">
     <path d="M 141.833943 166.264604 
L 182.412068 166.264604 
L 182.412068 148.586479 
L 141.833943 148.586479 
z
" style="fill:#ffff00;opacity:0.3;stroke:#000000;stroke-linejoin:miter;"/>
    </g>
    <!-- M+P 2 -->
    <g style="fill:#ff0000;" transform="translate(145.833943 160.184916)scale(0.1 -0.1)">
     <use xlink:href="#DejaVuSans-4d"/>
     <use x="86.279297" xlink:href="#DejaVuSans-2b"/>
     <use x="170.068359" xlink:href="#DejaVuSans-50"/>
     <use x="230.371094" xlink:href="#DejaVuSans-20"/>
     <use x="262.158203" xlink:href="#DejaVuSans-32"/>
    </g>
   </g>
   <g id="text_37">
    <g id="patch_25">
     <path d="M 221.887754 238.222426 
L 270.528379 238.222426 
L 270.528379 220.544301 
L 221.887754 220.544301 
z
" style="fill:#ffff00;opacity:0.3;stroke:#000000;stroke-linejoin:miter;"/>
    </g>
    <!-- E+B 0.5 -->
    <g style="fill:#ff0000;" transform="translate(225.887754 232.142739)scale(0.1 -0.1)">
     <defs>
      <path d="M 628 4666 
L 3578 4666 
L 3578 4134 
L 1259 4134 
L 1259 2753 
L 3481 2753 
L 3481 2222 
L 1259 2222 
L 1259 531 
L 3634 531 
L 3634 0 
L 628 0 
L 628 4666 
z
" id="DejaVuSans-45" transform="scale(0.015625)"/>
     </defs>
     <use xlink:href="#DejaVuSans-45"/>
     <use x="63.183594" xlink:href="#DejaVuSans-2b"/>
     <use x="146.972656" xlink:href="#DejaVuSans-42"/>
     <use x="215.576172" xlink:href="#DejaVuSans-20"/>
     <use x="247.363281" xlink:href="#DejaVuSans-30"/>
     <use x="310.986328" xlink:href="#DejaVuSans-2e"/>
     <use x="342.773438" xlink:href="#DejaVuSans-35"/>
    </g>
   </g>
   <g id="text_38">
    <g id="patch_26">
     <path d="M 188.610154 264.773483 
L 227.710154 264.773483 
L 227.710154 247.095358 
L 188.610154 247.095358 
z
" style="fill:#ffff00;opacity:0.3;stroke:#000000;stroke-linejoin:miter;"/>
    </g>
    <!-- E+B 1 -->
    <g style="fill:#ff0000;" transform="translate(192.610154 258.693795)scale(0.1 -0.1)">
     <use xlink:href="#DejaVuSans-45"/>
     <use x="63.183594" xlink:href="#DejaVuSans-2b"/>
     <use x="146.972656" xlink:href="#DejaVuSans-42"/>
     <use x="215.576172" xlink:href="#DejaVuSans-20"/>
     <use x="247.363281" xlink:href="#DejaVuSans-31"/>
    </g>
   </g>
   <g id="text_39">
    <g id="patch_27">
     <path d="M 183.888294 266.203191 
L 232.528919 266.203191 
L 232.528919 248.525066 
L 183.888294 248.525066 
z
" style="fill:#ffff00;opacity:0.3;stroke:#000000;stroke-linejoin:miter;"/>
    </g>
    <!-- E+B 1.5 -->
    <g style="fill:#ff0000;" transform="translate(187.888294 260.123504)scale(0.1 -0.1)">
     <use xlink:href="#DejaVuSans-45"/>
     <use x="63.183594" xlink:href="#DejaVuSans-2b"/>
     <use x="146.972656" xlink:href="#DejaVuSans-42"/>
     <use x="215.576172" xlink:href="#DejaVuSans-20"/>
     <use x="247.363281" xlink:href="#DejaVuSans-31"/>
     <use x="310.986328" xlink:href="#DejaVuSans-2e"/>
     <use x="342.773438" xlink:href="#DejaVuSans-35"/>
    </g>
   </g>
   <g id="text_40">
    <g id="patch_28">
     <path d="M 182.856775 267.358528 
L 221.956775 267.358528 
L 221.956775 249.680403 
L 182.856775 249.680403 
z
" style="fill:#ffff00;opacity:0.3;stroke:#000000;stroke-linejoin:miter;"/>
    </g>
    <!-- E+B 2 -->
    <g style="fill:#ff0000;" transform="translate(186.856775 261.278841)scale(0.1 -0.1)">
     <use xlink:href="#DejaVuSans-45"/>
     <use x="63.183594" xlink:href="#DejaVuSans-2b"/>
     <use x="146.972656" xlink:href="#DejaVuSans-42"/>
     <use x="215.576172" xlink:href="#DejaVuSans-20"/>
     <use x="247.363281" xlink:href="#DejaVuSans-32"/>
    </g>
   </g>
   <g id="text_41">
    <g id="patch_29">
     <path d="M 397.476698 297.948854 
L 451.11576 297.948854 
L 451.11576 280.270729 
L 397.476698 280.270729 
z
" style="fill:#ffff00;opacity:0.3;stroke:#000000;stroke-linejoin:miter;"/>
    </g>
    <!-- E Control -->
    <g style="fill:#ff0000;" transform="translate(401.476698 291.869166)scale(0.1 -0.1)">
     <use xlink:href="#DejaVuSans-45"/>
     <use x="63.183594" xlink:href="#DejaVuSans-20"/>
     <use x="94.970703" xlink:href="#DejaVuSans-43"/>
     <use x="164.794922" xlink:href="#DejaVuSans-6f"/>
     <use x="225.976562" xlink:href="#DejaVuSans-6e"/>
     <use x="289.355469" xlink:href="#DejaVuSans-74"/>
     <use x="328.564453" xlink:href="#DejaVuSans-72"/>
     <use x="367.427734" xlink:href="#DejaVuSans-6f"/>
     <use x="428.609375" xlink:href="#DejaVuSans-6c"/>
    </g>
   </g>
   <g id="text_42">
    <g id="patch_30">
     <path d="M 225.882532 223.060731 
L 273.691907 223.060731 
L 273.691907 205.382606 
L 225.882532 205.382606 
z
" style="fill:#ffff00;opacity:0.3;stroke:#000000;stroke-linejoin:miter;"/>
    </g>
    <!-- E+P 0.5 -->
    <g style="fill:#ff0000;" transform="translate(229.882532 216.981043)scale(0.1 -0.1)">
     <use xlink:href="#DejaVuSans-45"/>
     <use x="63.183594" xlink:href="#DejaVuSans-2b"/>
     <use x="146.972656" xlink:href="#DejaVuSans-50"/>
     <use x="207.275391" xlink:href="#DejaVuSans-20"/>
     <use x="239.0625" xlink:href="#DejaVuSans-30"/>
     <use x="302.685547" xlink:href="#DejaVuSans-2e"/>
     <use x="334.472656" xlink:href="#DejaVuSans-35"/>
    </g>
   </g>
   <g id="text_43">
    <g id="patch_31">
     <path d="M 210.775152 224.951604 
L 249.043902 224.951604 
L 249.043902 207.273479 
L 210.775152 207.273479 
z
" style="fill:#ffff00;opacity:0.3;stroke:#000000;stroke-linejoin:miter;"/>
    </g>
    <!-- E+P 1 -->
    <g style="fill:#ff0000;" transform="translate(214.775152 218.871917)scale(0.1 -0.1)">
     <use xlink:href="#DejaVuSans-45"/>
     <use x="63.183594" xlink:href="#DejaVuSans-2b"/>
     <use x="146.972656" xlink:href="#DejaVuSans-50"/>
     <use x="207.275391" xlink:href="#DejaVuSans-20"/>
     <use x="239.0625" xlink:href="#DejaVuSans-31"/>
    </g>
   </g>
   <g id="text_44">
    <g id="patch_32">
     <path d="M 184.134904 232.020521 
L 231.944279 232.020521 
L 231.944279 214.342396 
L 184.134904 214.342396 
z
" style="fill:#ffff00;opacity:0.3;stroke:#000000;stroke-linejoin:miter;"/>
    </g>
    <!-- E+P 1.5 -->
    <g style="fill:#ff0000;" transform="translate(188.134904 225.940834)scale(0.1 -0.1)">
     <use xlink:href="#DejaVuSans-45"/>
     <use x="63.183594" xlink:href="#DejaVuSans-2b"/>
     <use x="146.972656" xlink:href="#DejaVuSans-50"/>
     <use x="207.275391" xlink:href="#DejaVuSans-20"/>
     <use x="239.0625" xlink:href="#DejaVuSans-31"/>
     <use x="302.685547" xlink:href="#DejaVuSans-2e"/>
     <use x="334.472656" xlink:href="#DejaVuSans-35"/>
    </g>
   </g>
   <g id="text_45">
    <g id="patch_33">
     <path d="M 155.258327 237.560644 
L 193.527077 237.560644 
L 193.527077 219.882519 
L 155.258327 219.882519 
z
" style="fill:#ffff00;opacity:0.3;stroke:#000000;stroke-linejoin:miter;"/>
    </g>
    <!-- E+P 2 -->
    <g style="fill:#ff0000;" transform="translate(159.258327 231.480957)scale(0.1 -0.1)">
     <use xlink:href="#DejaVuSans-45"/>
     <use x="63.183594" xlink:href="#DejaVuSans-2b"/>
     <use x="146.972656" xlink:href="#DejaVuSans-50"/>
     <use x="207.275391" xlink:href="#DejaVuSans-20"/>
     <use x="239.0625" xlink:href="#DejaVuSans-32"/>
    </g>
   </g>
   <g id="text_46">
    <!-- 1 -->
    <g transform="translate(153.936647 222.470323)scale(0.1 -0.1)">
     <defs>
      <path d="M 750 831 
L 1813 831 
L 1813 3847 
L 722 3622 
L 722 4441 
L 1806 4666 
L 2950 4666 
L 2950 831 
L 4013 831 
L 4013 0 
L 750 0 
L 750 831 
z
" id="DejaVuSans-Bold-31" transform="scale(0.015625)"/>
     </defs>
     <use xlink:href="#DejaVuSans-Bold-31"/>
    </g>
   </g>
   <g id="text_47">
    <!-- 2 -->
    <g transform="translate(172.642837 209.230569)scale(0.1 -0.1)">
     <defs>
      <path d="M 1844 884 
L 3897 884 
L 3897 0 
L 506 0 
L 506 884 
L 2209 2388 
Q 2438 2594 2547 2791 
Q 2656 2988 2656 3200 
Q 2656 3528 2436 3728 
Q 2216 3928 1850 3928 
Q 1569 3928 1234 3808 
Q 900 3688 519 3450 
L 519 4475 
Q 925 4609 1322 4679 
Q 1719 4750 2100 4750 
Q 2938 4750 3402 4381 
Q 3866 4013 3866 3353 
Q 3866 2972 3669 2642 
Q 3472 2313 2841 1759 
L 1844 884 
z
" id="DejaVuSans-Bold-32" transform="scale(0.015625)"/>
     </defs>
     <use xlink:href="#DejaVuSans-Bold-32"/>
    </g>
   </g>
   <g id="text_48">
    <!-- 3 -->
    <g transform="translate(173.826152 207.355235)scale(0.1 -0.1)">
     <defs>
      <path d="M 2981 2516 
Q 3453 2394 3698 2092 
Q 3944 1791 3944 1325 
Q 3944 631 3412 270 
Q 2881 -91 1863 -91 
Q 1503 -91 1142 -33 
Q 781 25 428 141 
L 428 1069 
Q 766 900 1098 814 
Q 1431 728 1753 728 
Q 2231 728 2486 893 
Q 2741 1059 2741 1369 
Q 2741 1688 2480 1852 
Q 2219 2016 1709 2016 
L 1228 2016 
L 1228 2791 
L 1734 2791 
Q 2188 2791 2409 2933 
Q 2631 3075 2631 3366 
Q 2631 3634 2415 3781 
Q 2200 3928 1806 3928 
Q 1516 3928 1219 3862 
Q 922 3797 628 3669 
L 628 4550 
Q 984 4650 1334 4700 
Q 1684 4750 2022 4750 
Q 2931 4750 3382 4451 
Q 3834 4153 3834 3553 
Q 3834 3144 3618 2883 
Q 3403 2622 2981 2516 
z
" id="DejaVuSans-Bold-33" transform="scale(0.015625)"/>
     </defs>
     <use xlink:href="#DejaVuSans-Bold-33"/>
    </g>
   </g>
   <g id="text_49">
    <!-- 4 -->
    <g transform="translate(172.399033 209.090374)scale(0.1 -0.1)">
     <defs>
      <path d="M 2356 3675 
L 1038 1722 
L 2356 1722 
L 2356 3675 
z
M 2156 4666 
L 3494 4666 
L 3494 1722 
L 4159 1722 
L 4159 850 
L 3494 850 
L 3494 0 
L 2356 0 
L 2356 850 
L 288 850 
L 288 1881 
L 2156 4666 
z
" id="DejaVuSans-Bold-34" transform="scale(0.015625)"/>
     </defs>
     <use xlink:href="#DejaVuSans-Bold-34"/>
    </g>
   </g>
   <g id="text_50">
    <!-- 5 -->
    <g transform="translate(172.8022 208.672944)scale(0.1 -0.1)">
     <defs>
      <path d="M 678 4666 
L 3669 4666 
L 3669 3781 
L 1638 3781 
L 1638 3059 
Q 1775 3097 1914 3117 
Q 2053 3138 2203 3138 
Q 3056 3138 3531 2711 
Q 4006 2284 4006 1522 
Q 4006 766 3489 337 
Q 2972 -91 2053 -91 
Q 1656 -91 1267 -14 
Q 878 63 494 219 
L 494 1166 
Q 875 947 1217 837 
Q 1559 728 1863 728 
Q 2300 728 2551 942 
Q 2803 1156 2803 1522 
Q 2803 1891 2551 2103 
Q 2300 2316 1863 2316 
Q 1603 2316 1309 2248 
Q 1016 2181 678 2041 
L 678 4666 
z
" id="DejaVuSans-Bold-35" transform="scale(0.015625)"/>
     </defs>
     <use xlink:href="#DejaVuSans-Bold-35"/>
    </g>
   </g>
   <g id="text_51">
    <!-- 6 -->
    <g transform="translate(172.959114 208.729955)scale(0.1 -0.1)">
     <defs>
      <path d="M 2316 2303 
Q 2000 2303 1842 2098 
Q 1684 1894 1684 1484 
Q 1684 1075 1842 870 
Q 2000 666 2316 666 
Q 2634 666 2792 870 
Q 2950 1075 2950 1484 
Q 2950 1894 2792 2098 
Q 2634 2303 2316 2303 
z
M 3803 4544 
L 3803 3681 
Q 3506 3822 3243 3889 
Q 2981 3956 2731 3956 
Q 2194 3956 1894 3657 
Q 1594 3359 1544 2772 
Q 1750 2925 1990 3001 
Q 2231 3078 2516 3078 
Q 3231 3078 3670 2659 
Q 4109 2241 4109 1563 
Q 4109 813 3618 361 
Q 3128 -91 2303 -91 
Q 1394 -91 895 523 
Q 397 1138 397 2266 
Q 397 3422 980 4083 
Q 1563 4744 2578 4744 
Q 2900 4744 3203 4694 
Q 3506 4644 3803 4544 
z
" id="DejaVuSans-Bold-36" transform="scale(0.015625)"/>
     </defs>
     <use xlink:href="#DejaVuSans-Bold-36"/>
    </g>
   </g>
   <g id="text_52">
    <!-- 7 -->
    <g transform="translate(172.707482 209.699904)scale(0.1 -0.1)">
     <defs>
      <path d="M 428 4666 
L 3944 4666 
L 3944 3988 
L 2125 0 
L 953 0 
L 2675 3781 
L 428 3781 
L 428 4666 
z
" id="DejaVuSans-Bold-37" transform="scale(0.015625)"/>
     </defs>
     <use xlink:href="#DejaVuSans-Bold-37"/>
    </g>
   </g>
   <g id="text_53">
    <!-- 8 -->
    <g transform="translate(172.986727 210.471192)scale(0.1 -0.1)">
     <defs>
      <path d="M 2228 2088 
Q 1891 2088 1709 1903 
Q 1528 1719 1528 1375 
Q 1528 1031 1709 848 
Q 1891 666 2228 666 
Q 2563 666 2741 848 
Q 2919 1031 2919 1375 
Q 2919 1722 2741 1905 
Q 2563 2088 2228 2088 
z
M 1350 2484 
Q 925 2613 709 2878 
Q 494 3144 494 3541 
Q 494 4131 934 4440 
Q 1375 4750 2228 4750 
Q 3075 4750 3515 4442 
Q 3956 4134 3956 3541 
Q 3956 3144 3739 2878 
Q 3522 2613 3097 2484 
Q 3572 2353 3814 2058 
Q 4056 1763 4056 1313 
Q 4056 619 3595 264 
Q 3134 -91 2228 -91 
Q 1319 -91 855 264 
Q 391 619 391 1313 
Q 391 1763 633 2058 
Q 875 2353 1350 2484 
z
M 1631 3419 
Q 1631 3141 1786 2991 
Q 1941 2841 2228 2841 
Q 2509 2841 2662 2991 
Q 2816 3141 2816 3419 
Q 2816 3697 2662 3845 
Q 2509 3994 2228 3994 
Q 1941 3994 1786 3844 
Q 1631 3694 1631 3419 
z
" id="DejaVuSans-Bold-38" transform="scale(0.015625)"/>
     </defs>
     <use xlink:href="#DejaVuSans-Bold-38"/>
    </g>
   </g>
   <g id="text_54">
    <!-- 9 -->
    <g transform="translate(172.838726 207.785742)scale(0.1 -0.1)">
     <defs>
      <path d="M 641 103 
L 641 966 
Q 928 831 1190 764 
Q 1453 697 1709 697 
Q 2247 697 2547 995 
Q 2847 1294 2900 1881 
Q 2688 1725 2447 1647 
Q 2206 1569 1925 1569 
Q 1209 1569 770 1986 
Q 331 2403 331 3084 
Q 331 3838 820 4291 
Q 1309 4744 2131 4744 
Q 3044 4744 3544 4128 
Q 4044 3513 4044 2388 
Q 4044 1231 3459 570 
Q 2875 -91 1856 -91 
Q 1528 -91 1228 -42 
Q 928 6 641 103 
z
M 2125 2350 
Q 2441 2350 2600 2554 
Q 2759 2759 2759 3169 
Q 2759 3575 2600 3781 
Q 2441 3988 2125 3988 
Q 1809 3988 1650 3781 
Q 1491 3575 1491 3169 
Q 1491 2759 1650 2554 
Q 1809 2350 2125 2350 
z
" id="DejaVuSans-Bold-39" transform="scale(0.015625)"/>
     </defs>
     <use xlink:href="#DejaVuSans-Bold-39"/>
    </g>
   </g>
   <g id="text_55">
    <!-- 10 -->
    <g transform="translate(169.034764 209.022889)scale(0.1 -0.1)">
     <defs>
      <path d="M 2944 2338 
Q 2944 3213 2780 3570 
Q 2616 3928 2228 3928 
Q 1841 3928 1675 3570 
Q 1509 3213 1509 2338 
Q 1509 1453 1675 1090 
Q 1841 728 2228 728 
Q 2613 728 2778 1090 
Q 2944 1453 2944 2338 
z
M 4147 2328 
Q 4147 1169 3647 539 
Q 3147 -91 2228 -91 
Q 1306 -91 806 539 
Q 306 1169 306 2328 
Q 306 3491 806 4120 
Q 1306 4750 2228 4750 
Q 3147 4750 3647 4120 
Q 4147 3491 4147 2328 
z
" id="DejaVuSans-Bold-30" transform="scale(0.015625)"/>
     </defs>
     <use xlink:href="#DejaVuSans-Bold-31"/>
     <use x="69.580078" xlink:href="#DejaVuSans-Bold-30"/>
    </g>
   </g>
   <g id="text_56">
    <!-- 11 -->
    <g transform="translate(167.345833 211.289237)scale(0.1 -0.1)">
     <use xlink:href="#DejaVuSans-Bold-31"/>
     <use x="69.580078" xlink:href="#DejaVuSans-Bold-31"/>
    </g>
   </g>
   <g id="text_57">
    <!-- 12 -->
    <g transform="translate(162.683156 213.972695)scale(0.1 -0.1)">
     <use xlink:href="#DejaVuSans-Bold-31"/>
     <use x="69.580078" xlink:href="#DejaVuSans-Bold-32"/>
    </g>
   </g>
   <g id="text_58">
    <!-- 13 -->
    <g transform="translate(198.982567 116.198158)scale(0.1 -0.1)">
     <use xlink:href="#DejaVuSans-Bold-31"/>
     <use x="69.580078" xlink:href="#DejaVuSans-Bold-33"/>
    </g>
   </g>
   <g id="text_59">
    <!-- 14 -->
    <g transform="translate(168.485608 208.723473)scale(0.1 -0.1)">
     <use xlink:href="#DejaVuSans-Bold-31"/>
     <use x="69.580078" xlink:href="#DejaVuSans-Bold-34"/>
    </g>
   </g>
   <g id="text_60">
    <!-- 15 -->
    <g transform="translate(167.127036 209.080402)scale(0.1 -0.1)">
     <use xlink:href="#DejaVuSans-Bold-31"/>
     <use x="69.580078" xlink:href="#DejaVuSans-Bold-35"/>
    </g>
   </g>
   <g id="text_61">
    <!-- 16 -->
    <g transform="translate(168.844819 208.994864)scale(0.1 -0.1)">
     <use xlink:href="#DejaVuSans-Bold-31"/>
     <use x="69.580078" xlink:href="#DejaVuSans-Bold-36"/>
    </g>
   </g>
   <g id="text_62">
    <!-- 17 -->
    <g transform="translate(168.878736 209.246972)scale(0.1 -0.1)">
     <use xlink:href="#DejaVuSans-Bold-31"/>
     <use x="69.580078" xlink:href="#DejaVuSans-Bold-37"/>
    </g>
   </g>
   <g id="text_63">
    <!-- 18 -->
    <g transform="translate(169.292554 208.944268)scale(0.1 -0.1)">
     <use xlink:href="#DejaVuSans-Bold-31"/>
     <use x="69.580078" xlink:href="#DejaVuSans-Bold-38"/>
    </g>
   </g>
   <g id="text_64">
    <!-- 19 -->
    <g transform="translate(168.243618 208.974059)scale(0.1 -0.1)">
     <use xlink:href="#DejaVuSans-Bold-31"/>
     <use x="69.580078" xlink:href="#DejaVuSans-Bold-39"/>
    </g>
   </g>
   <g id="text_65">
    <!-- 20 -->
    <g transform="translate(251.81804 255.365176)scale(0.1 -0.1)">
     <use xlink:href="#DejaVuSans-Bold-32"/>
     <use x="69.580078" xlink:href="#DejaVuSans-Bold-30"/>
    </g>
   </g>
   <g id="text_66">
    <!-- 22 -->
    <g transform="translate(175.091301 208.841299)scale(0.1 -0.1)">
     <use xlink:href="#DejaVuSans-Bold-32"/>
     <use x="69.580078" xlink:href="#DejaVuSans-Bold-32"/>
    </g>
   </g>
   <g id="text_67">
    <!-- 23 -->
    <g transform="translate(169.427435 208.690516)scale(0.1 -0.1)">
     <use xlink:href="#DejaVuSans-Bold-32"/>
     <use x="69.580078" xlink:href="#DejaVuSans-Bold-33"/>
    </g>
   </g>
   <g id="text_68">
    <!-- 24 -->
    <g transform="translate(169.071055 208.936973)scale(0.1 -0.1)">
     <use xlink:href="#DejaVuSans-Bold-32"/>
     <use x="69.580078" xlink:href="#DejaVuSans-Bold-34"/>
    </g>
   </g>
   <g id="text_69">
    <!-- 25 -->
    <g transform="translate(168.944085 208.217147)scale(0.1 -0.1)">
     <use xlink:href="#DejaVuSans-Bold-32"/>
     <use x="69.580078" xlink:href="#DejaVuSans-Bold-35"/>
    </g>
   </g>
   <g id="text_70">
    <!-- 26 -->
    <g transform="translate(169.334529 206.697482)scale(0.1 -0.1)">
     <use xlink:href="#DejaVuSans-Bold-32"/>
     <use x="69.580078" xlink:href="#DejaVuSans-Bold-36"/>
    </g>
   </g>
   <g id="text_71">
    <!-- 27 -->
    <g transform="translate(168.818375 208.784461)scale(0.1 -0.1)">
     <use xlink:href="#DejaVuSans-Bold-32"/>
     <use x="69.580078" xlink:href="#DejaVuSans-Bold-37"/>
    </g>
   </g>
   <g id="text_72">
    <!-- 28 -->
    <g transform="translate(169.303464 208.609124)scale(0.1 -0.1)">
     <use xlink:href="#DejaVuSans-Bold-32"/>
     <use x="69.580078" xlink:href="#DejaVuSans-Bold-38"/>
    </g>
   </g>
   <g id="text_73">
    <!-- 29 -->
    <g transform="translate(127.277728 218.986511)scale(0.1 -0.1)">
     <use xlink:href="#DejaVuSans-Bold-32"/>
     <use x="69.580078" xlink:href="#DejaVuSans-Bold-39"/>
    </g>
   </g>
   <g id="text_74">
    <!-- 30 -->
    <g transform="translate(169.236753 207.181098)scale(0.1 -0.1)">
     <use xlink:href="#DejaVuSans-Bold-33"/>
     <use x="69.580078" xlink:href="#DejaVuSans-Bold-30"/>
    </g>
   </g>
   <g id="text_75">
    <!-- 31 -->
    <g transform="translate(141.899036 218.624886)scale(0.1 -0.1)">
     <use xlink:href="#DejaVuSans-Bold-33"/>
     <use x="69.580078" xlink:href="#DejaVuSans-Bold-31"/>
    </g>
   </g>
   <g id="text_76">
    <!-- 32 -->
    <g transform="translate(170.026959 109.544317)scale(0.1 -0.1)">
     <use xlink:href="#DejaVuSans-Bold-33"/>
     <use x="69.580078" xlink:href="#DejaVuSans-Bold-32"/>
    </g>
   </g>
   <g id="text_77">
    <!-- 33 -->
    <g transform="translate(169.340136 207.978571)scale(0.1 -0.1)">
     <use xlink:href="#DejaVuSans-Bold-33"/>
     <use x="69.580078" xlink:href="#DejaVuSans-Bold-33"/>
    </g>
   </g>
   <g id="text_78">
    <!-- 34 -->
    <g transform="translate(169.833303 205.72039)scale(0.1 -0.1)">
     <use xlink:href="#DejaVuSans-Bold-33"/>
     <use x="69.580078" xlink:href="#DejaVuSans-Bold-34"/>
    </g>
   </g>
   <g id="text_79">
    <!-- 35 -->
    <g transform="translate(169.322715 207.596294)scale(0.1 -0.1)">
     <use xlink:href="#DejaVuSans-Bold-33"/>
     <use x="69.580078" xlink:href="#DejaVuSans-Bold-35"/>
    </g>
   </g>
   <g id="text_80">
    <!-- 36 -->
    <g transform="translate(169.357865 206.145116)scale(0.1 -0.1)">
     <use xlink:href="#DejaVuSans-Bold-33"/>
     <use x="69.580078" xlink:href="#DejaVuSans-Bold-36"/>
    </g>
   </g>
   <g id="text_81">
    <!-- 37 -->
    <g transform="translate(112.5226 287.701407)scale(0.1 -0.1)">
     <use xlink:href="#DejaVuSans-Bold-33"/>
     <use x="69.580078" xlink:href="#DejaVuSans-Bold-37"/>
    </g>
   </g>
   <g id="text_82">
    <!-- 38 -->
    <g transform="translate(250.993497 230.387493)scale(0.1 -0.1)">
     <use xlink:href="#DejaVuSans-Bold-33"/>
     <use x="69.580078" xlink:href="#DejaVuSans-Bold-38"/>
    </g>
   </g>
   <g id="text_83">
    <!-- 39 -->
    <g transform="translate(169.387246 208.603084)scale(0.1 -0.1)">
     <use xlink:href="#DejaVuSans-Bold-33"/>
     <use x="69.580078" xlink:href="#DejaVuSans-Bold-39"/>
    </g>
   </g>
   <g id="text_84">
    <!-- 40 -->
    <g transform="translate(169.387643 207.751911)scale(0.1 -0.1)">
     <use xlink:href="#DejaVuSans-Bold-34"/>
     <use x="69.580078" xlink:href="#DejaVuSans-Bold-30"/>
    </g>
   </g>
   <g id="text_85">
    <!-- 41 -->
    <g transform="translate(169.261211 207.333683)scale(0.1 -0.1)">
     <use xlink:href="#DejaVuSans-Bold-34"/>
     <use x="69.580078" xlink:href="#DejaVuSans-Bold-31"/>
    </g>
   </g>
   <g id="text_86">
    <!-- 42 -->
    <g transform="translate(168.615166 208.962244)scale(0.1 -0.1)">
     <use xlink:href="#DejaVuSans-Bold-34"/>
     <use x="69.580078" xlink:href="#DejaVuSans-Bold-32"/>
    </g>
   </g>
   <g id="text_87">
    <!-- 43 -->
    <g transform="translate(169.017271 209.948765)scale(0.1 -0.1)">
     <use xlink:href="#DejaVuSans-Bold-34"/>
     <use x="69.580078" xlink:href="#DejaVuSans-Bold-33"/>
    </g>
   </g>
   <g id="text_88">
    <!-- 44 -->
    <g transform="translate(134.029781 153.720689)scale(0.1 -0.1)">
     <use xlink:href="#DejaVuSans-Bold-34"/>
     <use x="69.580078" xlink:href="#DejaVuSans-Bold-34"/>
    </g>
   </g>
   <g id="text_89">
    <!-- 45 -->
    <g transform="translate(169.336081 208.829571)scale(0.1 -0.1)">
     <use xlink:href="#DejaVuSans-Bold-34"/>
     <use x="69.580078" xlink:href="#DejaVuSans-Bold-35"/>
    </g>
   </g>
   <g id="text_90">
    <!-- 46 -->
    <g transform="translate(169.422667 208.461029)scale(0.1 -0.1)">
     <use xlink:href="#DejaVuSans-Bold-34"/>
     <use x="69.580078" xlink:href="#DejaVuSans-Bold-36"/>
    </g>
   </g>
   <g id="text_91">
    <!-- 47 -->
    <g transform="translate(168.038692 207.931587)scale(0.1 -0.1)">
     <use xlink:href="#DejaVuSans-Bold-34"/>
     <use x="69.580078" xlink:href="#DejaVuSans-Bold-37"/>
    </g>
   </g>
   <g id="text_92">
    <!-- 48 -->
    <g transform="translate(169.230885 208.888064)scale(0.1 -0.1)">
     <use xlink:href="#DejaVuSans-Bold-34"/>
     <use x="69.580078" xlink:href="#DejaVuSans-Bold-38"/>
    </g>
   </g>
   <g id="text_93">
    <!-- 49 -->
    <g transform="translate(168.589115 208.968443)scale(0.1 -0.1)">
     <use xlink:href="#DejaVuSans-Bold-34"/>
     <use x="69.580078" xlink:href="#DejaVuSans-Bold-39"/>
    </g>
   </g>
   <g id="text_94">
    <!-- 50 -->
    <g transform="translate(188.606367 252.217335)scale(0.1 -0.1)">
     <use xlink:href="#DejaVuSans-Bold-35"/>
     <use x="69.580078" xlink:href="#DejaVuSans-Bold-30"/>
    </g>
   </g>
   <g id="text_95">
    <!-- 51 -->
    <g transform="translate(169.384544 208.610133)scale(0.1 -0.1)">
     <use xlink:href="#DejaVuSans-Bold-35"/>
     <use x="69.580078" xlink:href="#DejaVuSans-Bold-31"/>
    </g>
   </g>
   <g id="text_96">
    <!-- 52 -->
    <g transform="translate(169.239827 208.914883)scale(0.1 -0.1)">
     <use xlink:href="#DejaVuSans-Bold-35"/>
     <use x="69.580078" xlink:href="#DejaVuSans-Bold-32"/>
    </g>
   </g>
   <g id="text_97">
    <!-- 53 -->
    <g transform="translate(169.426807 208.029021)scale(0.1 -0.1)">
     <use xlink:href="#DejaVuSans-Bold-35"/>
     <use x="69.580078" xlink:href="#DejaVuSans-Bold-33"/>
    </g>
   </g>
   <g id="text_98">
    <!-- 54 -->
    <g transform="translate(169.365826 208.633269)scale(0.1 -0.1)">
     <use xlink:href="#DejaVuSans-Bold-35"/>
     <use x="69.580078" xlink:href="#DejaVuSans-Bold-34"/>
    </g>
   </g>
   <g id="text_99">
    <!-- 55 -->
    <g transform="translate(169.393751 208.423595)scale(0.1 -0.1)">
     <use xlink:href="#DejaVuSans-Bold-35"/>
     <use x="69.580078" xlink:href="#DejaVuSans-Bold-35"/>
    </g>
   </g>
   <g id="text_100">
    <!-- 56 -->
    <g transform="translate(168.905331 208.908154)scale(0.1 -0.1)">
     <use xlink:href="#DejaVuSans-Bold-35"/>
     <use x="69.580078" xlink:href="#DejaVuSans-Bold-36"/>
    </g>
   </g>
   <g id="text_101">
    <!-- 57 -->
    <g transform="translate(157.12136 216.948573)scale(0.1 -0.1)">
     <use xlink:href="#DejaVuSans-Bold-35"/>
     <use x="69.580078" xlink:href="#DejaVuSans-Bold-37"/>
    </g>
   </g>
   <g id="text_102">
    <!-- 58 -->
    <g transform="translate(167.952404 209.417404)scale(0.1 -0.1)">
     <use xlink:href="#DejaVuSans-Bold-35"/>
     <use x="69.580078" xlink:href="#DejaVuSans-Bold-38"/>
    </g>
   </g>
   <g id="text_103">
    <!-- 59 -->
    <g transform="translate(168.703268 209.204729)scale(0.1 -0.1)">
     <use xlink:href="#DejaVuSans-Bold-35"/>
     <use x="69.580078" xlink:href="#DejaVuSans-Bold-39"/>
    </g>
   </g>
   <g id="text_104">
    <!-- 60 -->
    <g transform="translate(168.626038 209.07954)scale(0.1 -0.1)">
     <use xlink:href="#DejaVuSans-Bold-36"/>
     <use x="69.580078" xlink:href="#DejaVuSans-Bold-30"/>
    </g>
   </g>
   <g id="text_105">
    <!-- 61 -->
    <g transform="translate(173.276009 211.908041)scale(0.1 -0.1)">
     <use xlink:href="#DejaVuSans-Bold-36"/>
     <use x="69.580078" xlink:href="#DejaVuSans-Bold-31"/>
    </g>
   </g>
   <g id="text_106">
    <!-- 62 -->
    <g transform="translate(168.673174 208.913251)scale(0.1 -0.1)">
     <use xlink:href="#DejaVuSans-Bold-36"/>
     <use x="69.580078" xlink:href="#DejaVuSans-Bold-32"/>
    </g>
   </g>
   <g id="text_107">
    <!-- 63 -->
    <g transform="translate(169.359199 208.634587)scale(0.1 -0.1)">
     <use xlink:href="#DejaVuSans-Bold-36"/>
     <use x="69.580078" xlink:href="#DejaVuSans-Bold-33"/>
    </g>
   </g>
   <g id="text_108">
    <!-- 64 -->
    <g transform="translate(169.423073 208.600869)scale(0.1 -0.1)">
     <use xlink:href="#DejaVuSans-Bold-36"/>
     <use x="69.580078" xlink:href="#DejaVuSans-Bold-34"/>
    </g>
   </g>
   <g id="text_109">
    <!-- 65 -->
    <g transform="translate(169.278371 208.403979)scale(0.1 -0.1)">
     <use xlink:href="#DejaVuSans-Bold-36"/>
     <use x="69.580078" xlink:href="#DejaVuSans-Bold-35"/>
    </g>
   </g>
   <g id="text_110">
    <!-- 66 -->
    <g transform="translate(168.706757 209.417452)scale(0.1 -0.1)">
     <use xlink:href="#DejaVuSans-Bold-36"/>
     <use x="69.580078" xlink:href="#DejaVuSans-Bold-36"/>
    </g>
   </g>
   <g id="text_111">
    <!-- 67 -->
    <g transform="translate(167.690829 209.331705)scale(0.1 -0.1)">
     <use xlink:href="#DejaVuSans-Bold-36"/>
     <use x="69.580078" xlink:href="#DejaVuSans-Bold-37"/>
    </g>
   </g>
   <g id="text_112">
    <!-- 68 -->
    <g transform="translate(169.197358 208.757152)scale(0.1 -0.1)">
     <use xlink:href="#DejaVuSans-Bold-36"/>
     <use x="69.580078" xlink:href="#DejaVuSans-Bold-38"/>
    </g>
   </g>
   <g id="text_113">
    <!-- 70 -->
    <g transform="translate(168.579312 208.954465)scale(0.1 -0.1)">
     <use xlink:href="#DejaVuSans-Bold-37"/>
     <use x="69.580078" xlink:href="#DejaVuSans-Bold-30"/>
    </g>
   </g>
   <g id="text_114">
    <!-- 71 -->
    <g transform="translate(167.855436 209.313375)scale(0.1 -0.1)">
     <use xlink:href="#DejaVuSans-Bold-37"/>
     <use x="69.580078" xlink:href="#DejaVuSans-Bold-31"/>
    </g>
   </g>
   <g id="legend_1">
    <g id="patch_34">
     <path d="M 339.577813 166.897 
L 407.72 166.897 
Q 409.72 166.897 409.72 164.897 
L 409.72 48.472 
Q 409.72 46.472 407.72 46.472 
L 339.577813 46.472 
Q 337.577813 46.472 337.577813 48.472 
L 337.577813 164.897 
Q 337.577813 166.897 339.577813 166.897 
z
" style="fill:#ffffff;opacity:0.8;stroke:#cccccc;stroke-linejoin:miter;"/>
    </g>
    <g id="text_115">
     <!-- Type -->
     <g transform="translate(362.166094 58.070438)scale(0.1 -0.1)">
      <defs>
       <path d="M -19 4666 
L 3928 4666 
L 3928 4134 
L 2272 4134 
L 2272 0 
L 1638 0 
L 1638 4134 
L -19 4134 
L -19 4666 
z
" id="DejaVuSans-54" transform="scale(0.015625)"/>
       <path d="M 2059 -325 
Q 1816 -950 1584 -1140 
Q 1353 -1331 966 -1331 
L 506 -1331 
L 506 -850 
L 844 -850 
Q 1081 -850 1212 -737 
Q 1344 -625 1503 -206 
L 1606 56 
L 191 3500 
L 800 3500 
L 1894 763 
L 2988 3500 
L 3597 3500 
L 2059 -325 
z
" id="DejaVuSans-79" transform="scale(0.015625)"/>
       <path d="M 1159 525 
L 1159 -1331 
L 581 -1331 
L 581 3500 
L 1159 3500 
L 1159 2969 
Q 1341 3281 1617 3432 
Q 1894 3584 2278 3584 
Q 2916 3584 3314 3078 
Q 3713 2572 3713 1747 
Q 3713 922 3314 415 
Q 2916 -91 2278 -91 
Q 1894 -91 1617 61 
Q 1341 213 1159 525 
z
M 3116 1747 
Q 3116 2381 2855 2742 
Q 2594 3103 2138 3103 
Q 1681 3103 1420 2742 
Q 1159 2381 1159 1747 
Q 1159 1113 1420 752 
Q 1681 391 2138 391 
Q 2594 391 2855 752 
Q 3116 1113 3116 1747 
z
" id="DejaVuSans-70" transform="scale(0.015625)"/>
       <path d="M 3597 1894 
L 3597 1613 
L 953 1613 
Q 991 1019 1311 708 
Q 1631 397 2203 397 
Q 2534 397 2845 478 
Q 3156 559 3463 722 
L 3463 178 
Q 3153 47 2828 -22 
Q 2503 -91 2169 -91 
Q 1331 -91 842 396 
Q 353 884 353 1716 
Q 353 2575 817 3079 
Q 1281 3584 2069 3584 
Q 2775 3584 3186 3129 
Q 3597 2675 3597 1894 
z
M 3022 2063 
Q 3016 2534 2758 2815 
Q 2500 3097 2075 3097 
Q 1594 3097 1305 2825 
Q 1016 2553 972 2059 
L 3022 2063 
z
" id="DejaVuSans-65" transform="scale(0.015625)"/>
      </defs>
      <use xlink:href="#DejaVuSans-54"/>
      <use x="45.458984" xlink:href="#DejaVuSans-79"/>
      <use x="104.638672" xlink:href="#DejaVuSans-70"/>
      <use x="168.115234" xlink:href="#DejaVuSans-65"/>
     </g>
    </g>
    <g id="PathCollection_9">
     <defs>
      <path d="M 0 3 
C 0.795609 3 1.55874 2.683901 2.12132 2.12132 
C 2.683901 1.55874 3 0.795609 3 0 
C 3 -0.795609 2.683901 -1.55874 2.12132 -2.12132 
C 1.55874 -2.683901 0.795609 -3 0 -3 
C -0.795609 -3 -1.55874 -2.683901 -2.12132 -2.12132 
C -2.683901 -1.55874 -3 -0.795609 -3 0 
C -3 0.795609 -2.683901 1.55874 -2.12132 2.12132 
C -1.55874 2.683901 -0.795609 3 0 3 
z
" id="me2db37cfa5" style="stroke:#1f77b4;"/>
     </defs>
     <g>
      <use style="fill:#1f77b4;stroke:#1f77b4;" x="351.577813" xlink:href="#me2db37cfa5" y="70.123563"/>
     </g>
    </g>
    <g id="text_116">
     <!-- VB -->
     <g transform="translate(369.577813 72.748563)scale(0.1 -0.1)">
      <use xlink:href="#DejaVuSans-56"/>
      <use x="68.408203" xlink:href="#DejaVuSans-42"/>
     </g>
    </g>
    <g id="PathCollection_10">
     <defs>
      <path d="M -1.5 3 
L 0 1.5 
L 1.5 3 
L 3 1.5 
L 1.5 0 
L 3 -1.5 
L 1.5 -3 
L 0 -1.5 
L -1.5 -3 
L -3 -1.5 
L -1.5 0 
L -3 1.5 
z
" id="m725647641e" style="stroke:#ff7f0e;"/>
     </defs>
     <g>
      <use style="fill:#ff7f0e;stroke:#ff7f0e;" x="351.577813" xlink:href="#m725647641e" y="84.801688"/>
     </g>
    </g>
    <g id="text_117">
     <!-- Control -->
     <g transform="translate(369.577813 87.426688)scale(0.1 -0.1)">
      <use xlink:href="#DejaVuSans-43"/>
      <use x="69.824219" xlink:href="#DejaVuSans-6f"/>
      <use x="131.005859" xlink:href="#DejaVuSans-6e"/>
      <use x="194.384766" xlink:href="#DejaVuSans-74"/>
      <use x="233.59375" xlink:href="#DejaVuSans-72"/>
      <use x="272.457031" xlink:href="#DejaVuSans-6f"/>
      <use x="333.638672" xlink:href="#DejaVuSans-6c"/>
     </g>
    </g>
    <g id="PathCollection_11">
     <defs>
      <path d="M -2.12132 -2.12132 
L -2.12132 2.12132 
L 2.12132 2.12132 
L 2.12132 -2.12132 
z
" id="ma6260667fc" style="stroke:#2ca02c;"/>
     </defs>
     <g>
      <use style="fill:#2ca02c;stroke:#2ca02c;" x="351.577813" xlink:href="#ma6260667fc" y="99.479813"/>
     </g>
    </g>
    <g id="text_118">
     <!-- VP -->
     <g transform="translate(369.577813 102.104813)scale(0.1 -0.1)">
      <use xlink:href="#DejaVuSans-56"/>
      <use x="68.408203" xlink:href="#DejaVuSans-50"/>
     </g>
    </g>
    <g id="PathCollection_12">
     <defs>
      <path d="M -1 3 
L 1 3 
L 1 1 
L 3 1 
L 3 -1 
L 1 -1 
L 1 -3 
L -1 -3 
L -1 -1 
L -3 -1 
L -3 1 
L -1 1 
z
" id="m8e96e163e3" style="stroke:#d62728;"/>
     </defs>
     <g>
      <use style="fill:#d62728;stroke:#d62728;" x="351.577813" xlink:href="#m8e96e163e3" y="114.157938"/>
     </g>
    </g>
    <g id="text_119">
     <!-- MB -->
     <g transform="translate(369.577813 116.782938)scale(0.1 -0.1)">
      <use xlink:href="#DejaVuSans-4d"/>
      <use x="86.279297" xlink:href="#DejaVuSans-42"/>
     </g>
    </g>
    <g id="PathCollection_13">
     <defs>
      <path d="M 0 -3 
L -3 -0 
L -0 3 
L 3 0 
z
" id="m76aa291cc2" style="stroke:#9467bd;"/>
     </defs>
     <g>
      <use style="fill:#9467bd;stroke:#9467bd;" x="351.577813" xlink:href="#m76aa291cc2" y="128.836063"/>
     </g>
    </g>
    <g id="text_120">
     <!-- MP -->
     <g transform="translate(369.577813 131.461063)scale(0.1 -0.1)">
      <use xlink:href="#DejaVuSans-4d"/>
      <use x="86.279297" xlink:href="#DejaVuSans-50"/>
     </g>
    </g>
    <g id="PathCollection_14">
     <defs>
      <path d="M 0 -3 
L -1.06066 -1.06066 
L -3 -0 
L -1.06066 1.06066 
L -0 3 
L 1.06066 1.06066 
L 3 0 
L 1.06066 -1.06066 
z
" id="m13de1e0679" style="stroke:#8c564b;"/>
     </defs>
     <g>
      <use style="fill:#8c564b;stroke:#8c564b;" x="351.577813" xlink:href="#m13de1e0679" y="143.514188"/>
     </g>
    </g>
    <g id="text_121">
     <!-- EB -->
     <g transform="translate(369.577813 146.139188)scale(0.1 -0.1)">
      <use xlink:href="#DejaVuSans-45"/>
      <use x="63.183594" xlink:href="#DejaVuSans-42"/>
     </g>
    </g>
    <g id="PathCollection_15">
     <defs>
      <path d="M 0 -3 
L -3 3 
L 3 3 
z
" id="me445541334" style="stroke:#e377c2;"/>
     </defs>
     <g>
      <use style="fill:#e377c2;stroke:#e377c2;" x="351.577813" xlink:href="#me445541334" y="158.192313"/>
     </g>
    </g>
    <g id="text_122">
     <!-- EP -->
     <g transform="translate(369.577813 160.817313)scale(0.1 -0.1)">
      <use xlink:href="#DejaVuSans-45"/>
      <use x="63.183594" xlink:href="#DejaVuSans-50"/>
     </g>
    </g>
   </g>
  </g>
 </g>
 <defs>
  <clipPath id="p36d21c4437">
   <rect height="266.112" width="357.12" x="57.6" y="41.472"/>
  </clipPath>
 </defs>
</svg>
